<?xml version="1.0" encoding="UTF-8"?>
<!DOCTYPE svg PUBLIC "-//W3C//DTD SVG 1.1//EN" "http://www.w3.org/Graphics/SVG/1.1/DTD/svg11.dtd">
<!-- Creator: CorelDRAW X7 -->
<svg xmlns="http://www.w3.org/2000/svg" xml:space="preserve" width="1.66666in" height="1.66666in" version="1.1" style="shape-rendering:geometricPrecision; text-rendering:geometricPrecision; image-rendering:optimizeQuality; fill-rule:evenodd; clip-rule:evenodd"
viewBox="0 0 1667 1667"
 xmlns:xlink="http://www.w3.org/1999/xlink">
 <defs>
  <style type="text/css">
   <![CDATA[
    .fil27 {fill:#0D0E11}
    .fil11 {fill:#1B1B1C}
    .fil8 {fill:#231D1B}
    .fil56 {fill:#281716}
    .fil48 {fill:#2B2523}
    .fil10 {fill:#2B2C2B}
    .fil13 {fill:#2E3030}
    .fil31 {fill:#332D2A}
    .fil62 {fill:#33312E}
    .fil24 {fill:#361B19}
    .fil55 {fill:#372925}
    .fil66 {fill:#3C3935}
    .fil45 {fill:#3C3C3B}
    .fil59 {fill:#44332C}
    .fil68 {fill:#44413D}
    .fil0 {fill:#483835}
    .fil34 {fill:#4A342C}
    .fil28 {fill:#4C3A34}
    .fil21 {fill:#4C423C}
    .fil37 {fill:#4C4A45}
    .fil18 {fill:#544B44}
    .fil65 {fill:#552B28}
    .fil16 {fill:#55524D}
    .fil69 {fill:#57342C}
    .fil12 {fill:#5B443C}
    .fil47 {fill:#5C4B44}
    .fil50 {fill:#5C5C5B}
    .fil33 {fill:#634C44}
    .fil32 {fill:#635E5A}
    .fil44 {fill:#646462}
    .fil53 {fill:#663B36}
    .fil26 {fill:#67453C}
    .fil35 {fill:#6A4C43}
    .fil70 {fill:#6B6662}
    .fil38 {fill:#6C6C6B}
    .fil17 {fill:#735C53}
    .fil54 {fill:#746155}
    .fil1 {fill:#74645B}
    .fil39 {fill:#74726C}
    .fil42 {fill:#747573}
    .fil60 {fill:#75463B}
    .fil61 {fill:#754B45}
    .fil64 {fill:#7C695D}
    .fil58 {fill:#7C726B}
    .fil3 {fill:#83655B}
    .fil41 {fill:#836A5D}
    .fil23 {fill:#885A56}
    .fil49 {fill:#888785}
    .fil30 {fill:#8B746B}
    .fil40 {fill:#8C645B}
    .fil29 {fill:#8C7265}
    .fil43 {fill:#8C796D}
    .fil19 {fill:#937365}
    .fil57 {fill:#947A6C}
    .fil67 {fill:#968986}
    .fil9 {fill:#987875}
    .fil7 {fill:#9B7465}
    .fil63 {fill:#9B746A}
    .fil51 {fill:#9C8274}
    .fil6 {fill:#A4857A}
    .fil5 {fill:#A48A7C}
    .fil15 {fill:#A4938B}
    .fil14 {fill:#B38C7C}
    .fil4 {fill:#BCA294}
    .fil52 {fill:#BCA99D}
    .fil25 {fill:#C29B8D}
    .fil22 {fill:#C4A59A}
    .fil2 {fill:#CCB5AA}
    .fil20 {fill:#D0A69A}
    .fil46 {fill:#D3ACA4}
    .fil36 {fill:#D8C4B9}
   ]]>
  </style>
 </defs>
 <g id="Layer_x0020_1">
  <metadata id="CorelCorpID_0Corel-Layer"/>
  <path class="fil0" d="M1319 783l2 42 -30 1c-1,-13 1,-26 9,-36 12,-13 15,-8 19,-7zm-566 -660l-209 88 5 26c-2,5 -2,12 -6,16 0,0 -1,0 -1,1l-13 19 129 -49 11 -10c-9,-26 6,13 33,-25 18,-26 3,12 37,-2 24,-10 27,7 53,12 37,8 7,-5 41,-14 17,-5 63,35 73,45 32,37 60,6 83,-15l-7 25 13 -20 136 70 53 67 1 0 13 90 -32 191 6 5 -6 -3 -2 3 10 71 -9 3 -15 -15 -4 2 3 30 11 47 -9 2 26 15 8 -72 9 -1 10 90 7 1 11 -66c13,29 -23,201 -35,241 -3,10 -95,155 -105,164l-84 -104c13,19 13,35 30,53 17,20 -9,3 14,21 11,8 8,10 24,19 2,17 -5,1 6,17 6,9 9,17 3,27l-9 -14c8,8 5,12 3,22l-13 -34 -8 11 -28 31 -15 -52 -5 2 11 31 -21 0 17 8c7,1 8,13 3,22 10,5 0,-6 8,3 7,7 0,3 6,12 8,-14 -4,-2 2,-15 3,4 8,14 8,15 4,4 1,1 7,5 9,5 -1,-5 8,3 -1,2 -2,21 1,25 -1,1 -6,-3 -12,8l7 4 12 1 4 6c8,-16 1,-15 3,-32l7 14c-2,-19 4,-20 6,-36 2,-11 3,-28 15,-7 3,-18 -6,-21 7,-27 15,8 11,26 11,41 0,26 -1,4 -6,18 -2,5 0,14 -1,23 -3,22 -4,14 -19,29 -12,11 -7,29 -11,39l-12 -7 5 28 0 11c11,7 16,2 24,9 -9,8 11,-1 -5,7l-5 0c17,6 0,13 20,19 11,-7 33,-28 31,-40 1,9 -1,1 6,5l43 -99 -9 -5 -16 11 46 -110 15 1 31 -262 10 1 26 60 -87 -403 -9 0 19 14c-4,-15 -13,-35 -19,-50 23,-7 2,-9 24,-5l-9 -9 15 -1c-3,-20 -3,-7 -2,-19 1,-11 3,-12 6,-25l9 9c-2,-5 -8,-18 -8,-21 2,-11 1,3 4,-3 4,-8 0,2 0,-13 11,3 3,-3 11,9l-9 -18c9,4 15,8 18,17 2,6 1,6 3,13 4,11 1,0 7,10 7,11 1,34 4,51l-12 17 26 115 -11 2 -12 -45 12 145 20 91 2 -21c7,1 29,23 36,29l4 -90 -5 -2 -44 14 -5 -6 48 -64 -12 -1 -9 -202 0 -9 -9 -9 -1 -41 -4 -2 11 7c-6,-51 -52,-120 -87,-156 -25,-25 -35,-25 -65,-60 -11,-13 -57,-48 -57,-49 -10,-26 -154,-77 -215,-78l-55 0 -63 9zm57 297c10,-8 8,-17 14,-22 4,-3 10,2 15,-3 6,-6 -1,-7 11,-6 11,2 7,-3 13,-8 7,21 5,19 -15,27 1,5 31,7 14,29 -13,17 -21,6 -46,9l17 10c-4,17 -13,-3 -23,2 -11,7 7,19 9,24 -12,16 -50,-1 -56,-16 -13,-36 -7,-10 -21,-23 -4,-5 -4,-9 -9,-10 -4,-2 -4,4 -8,-4 1,-3 29,-27 35,-31 24,-18 27,-18 33,5 0,0 14,-36 24,-8 2,4 -24,19 -7,25zm188 135l3 -2c-16,-9 -10,3 -17,-7l3 11 -16 9c-6,-11 7,-7 -11,-22 -20,-6 2,13 -8,1 -2,-2 1,-5 -8,-6 -29,-2 -7,20 -40,-12 20,-26 10,-8 35,-14 -19,-15 7,-8 27,-32 3,-4 32,-44 34,-26 -2,-13 -1,-10 8,-19l7 10 -2 -2 -75 -64 24 -9 -24 -9 33 -12 -1 -8 -27 1 21 -61c-53,11 -45,-1 -90,-12 -33,-9 -11,21 -50,9 -7,-3 -17,6 -31,2 -16,-5 -23,-27 -41,-22 -23,7 10,19 -50,25 -51,5 -3,77 -9,124 -4,37 -46,24 -34,60 12,39 51,49 3,62 -49,14 -27,34 8,44 3,1 11,50 13,56 19,54 52,15 88,25 31,9 49,38 50,-34 0,-64 5,37 9,37 5,-1 8,-16 25,-12 20,5 26,15 50,6 30,-11 42,-32 49,-58 5,-18 51,5 44,-39zm-517 490c-4,35 6,35 15,46 13,17 16,20 19,39 12,85 6,27 4,84 -1,13 2,13 2,26 -18,-24 -11,2 -20,11 -5,-16 -2,-29 0,-46 2,-22 -3,-25 -6,-44 -1,-8 0,-19 -1,-23 -1,-3 -9,-10 -18,-51 -4,13 -1,25 -9,36 -12,-5 -16,-34 -18,-47 -4,-24 -19,-7 -13,-37l-6 -3c6,-44 -7,-14 1,-36l12 -1c10,18 -3,7 4,18 10,14 8,2 12,7 4,3 3,11 11,17l11 4zm-31 -607c-28,7 0,15 -16,22l-26 402 -16 -2 -31 -77 6 39c13,16 -10,-7 4,2 3,2 20,23 12,33 -6,7 0,0 -5,-11 -4,11 0,8 -9,11l-5 -7 0 4c11,21 11,14 15,19 1,1 1,0 1,4 0,6 -6,24 -7,28 -2,16 -7,17 -13,33 -9,22 0,28 0,47 -21,-5 -25,-37 -34,-55 -7,-15 -19,-24 -19,-39 0,-8 2,-8 4,-20l24 7c2,-11 -3,-3 7,-8l13 -18 -5 -8c-57,4 -12,-25 -29,-56 -22,-4 -17,13 -25,25 -12,18 -10,-5 -22,26l-2 -29c-5,6 -7,8 -9,12 -1,4 12,6 -6,11 -5,-28 10,-51 12,-78l-21 54 77 235 -5 -31c10,9 7,18 26,22 -7,-25 -58,-87 -40,-115 20,20 13,27 24,45 3,9 -1,-2 4,4l7 12c8,14 31,33 32,35 13,15 -9,9 9,20l-5 -131 3 0 20 108 4 -8 53 165 -4 1 -5 -10 -18 9 83 196c11,4 -4,5 12,10 1,1 2,1 2,1 15,3 14,-2 22,-12 8,14 1,7 3,15 17,-15 8,-15 18,-22l2 8c6,-11 13,-20 28,-21 -9,8 -15,-14 -19,-23 15,-13 4,-2 7,-2 18,-3 2,6 15,-14 15,-25 8,-15 18,-8l0 -9 115 -37 -111 9c0,8 1,1 -6,5l-28 7 -20 48 -4 4 -86 -280 -58 -247 22 -3 50 43 3 -2 -34 1 39 12 -4 17 5 4 26 -10c-14,-23 -9,-6 -26,-17 7,-7 18,-13 22,-20l-1 0 -24 4c-46,-17 -15,-23 -36,-47 18,-9 16,-21 17,-24 2,-9 6,-19 14,-23l15 -9 1 -230 16 4 -21 -71 -35 159 -14 -20 -7 28 -1 -156zm219 -224l-11 10c-52,23 6,-5 -47,11 -29,9 -44,26 -32,55 14,37 -11,108 27,88l33 40 2 78 7 5 -61 23 21 7 -77 159 206 19 2 -24 123 15 62 17 40 -10 102 -34 -7 -20 -66 26 -28 -32c3,-5 33,-11 36,-22 4,-19 -13,-15 18,-35 12,-8 21,-29 20,-35 -6,-30 -22,-1 -41,0 7,44 -39,21 -44,39 -7,26 -19,47 -49,58 -24,9 -30,-1 -50,-6 -17,-4 -20,11 -25,12 -4,0 -9,-101 -9,-37 -1,72 -19,43 -50,34 -36,-10 -69,29 -88,-25 -2,-6 -10,-55 -13,-56 -35,-10 -57,-30 -8,-44 48,-13 9,-23 -3,-62 -12,-36 30,-23 34,-60 6,-47 -42,-119 9,-124 60,-6 27,-18 50,-25 18,-5 25,17 41,22 14,4 24,-5 31,-2 39,12 17,-18 50,-9 45,11 37,23 90,12 -17,-8 -104,-46 -111,-55 -1,11 2,29 -6,37l-26 -44 -10 15 -17 -18 -45 -4 -2 16 -13 -14 -5 16 -60 -17zm0 0l60 17 5 -16 13 14 2 -16 45 4 17 18 10 -15 26 44c8,-8 5,-26 6,-37 7,9 94,47 111,55l82 1 -2 13 -21 19 39 47 -49 82 2 2c-9,4 -1,-2 0,7 1,9 -7,19 -12,28 -13,19 6,3 -5,22 -10,17 -9,-13 -10,14 10,4 1,-7 14,6 -6,10 4,14 -9,10l23 2c-12,12 -1,1 -14,6l-1 12 -3 2c19,-1 35,-30 41,0 1,6 -8,27 -20,35 -31,20 -14,16 -18,35 -3,11 -33,17 -36,22l28 32 66 -26 7 20 -102 34 51 -6 115 12 14 -5 -38 -108 -6 5 44 -141 15 2 -21 -20 60 1 -13 -90c-8,10 3,16 6,29 -16,-1 -15,-17 -21,-28 -6,4 -4,24 -3,34 -22,1 -10,-14 -27,-21 4,19 18,22 15,36 -27,8 -70,-45 -53,-69 -8,-8 -26,-20 -25,-31 32,-24 57,32 57,32 1,1 10,8 16,15 5,-9 9,-2 -2,-15l15 7c3,-12 -3,1 -1,-8 13,3 2,1 11,9 7,6 2,-3 11,10l-53 -67 -136 -70 -13 20 7 -25c-23,21 -51,52 -83,15 -10,-10 -56,-50 -73,-45 -34,9 -4,22 -41,14 -26,-5 -29,-22 -53,-12 -34,14 -19,-24 -37,2 -27,38 -42,-1 -33,25zm-140 59c0,17 -15,27 -30,39 -20,15 -39,58 -46,82l-6 39c1,4 5,-5 3,5l1 156 7 -28 14 20 35 -159 21 71 -16 -4 -1 230c11,-2 32,-5 39,-7 25,-7 2,-4 28,-4 7,1 31,-2 36,-1 8,1 23,12 27,16l-3 -8 45 8 194 0 -2 14 49 -25 -62 -17 -123 -15 -2 24 -206 -19 77 -159 -21 -7 61 -23 -7 -5 -2 -78 -33 -40c-38,20 -13,-51 -27,-88 -12,-29 3,-46 32,-55 53,-16 -5,12 47,-11l-129 49zm344 770l-12 16 -156 -18 -2 -9c0,0 18,-46 24,-46 7,0 13,10 43,8 3,-31 15,-193 21,-210l64 11 -11 5 29 243zm91 -336l-40 10 -49 25 2 -14 -194 0 10 9c31,3 24,-4 33,0 3,1 6,4 9,5 19,10 23,5 46,10 0,19 -16,25 -17,46 -1,22 -1,22 -14,43l-21 -13 1 17 -5 17c-3,-1 -12,8 -10,-7 4,14 -7,15 -18,20l0 5 35 27 4 -9 6 58 -31 19 -49 26 -86 89 1 9 -83 -57 1 -36 -11 4 -13 -47 -21 1c-11,-47 -31,-106 24,-115l78 59 123 -22c-2,0 -23,7 -32,10 -12,4 -27,4 -44,3 -29,-1 -51,-7 -64,-33l-5 -6 -26 10 -5 -4 4 -17 -39 -12 34 -1 -3 2 -50 -43 -22 3 58 247 86 280 4 -4 20 -48 -12 -77 -3 12c-40,-67 96,-216 132,-208l-9 43 2 5 157 38 1 0c4,-14 15,-24 27,-32l-16 -233 7 -54 84 -42 54 -24 -51 6zm-522 608l115 164 37 58c22,22 17,-11 35,38 21,-9 1,4 46,18 10,3 32,25 43,35l201 0 123 -99 139 -128 -18 -20 -47 28c-2,11 -12,19 -19,25 0,1 -1,1 -1,1l-4 5c-7,5 2,3 -14,5l-30 -8c-6,7 -5,8 -16,10 -11,-4 -2,-1 -9,-14 -4,11 -1,7 2,16 4,14 0,2 -5,16 2,19 -9,39 -24,43 -10,2 -22,11 -26,20l-5 15c-19,-3 -56,23 -51,44l-10 -21c-11,9 -7,11 -11,16 -4,6 -6,0 -16,4 -3,-18 2,-10 -11,-13 2,-18 6,-28 -1,-46 -14,1 -2,15 -15,-3l-12 13 -8 -9 -8 14c-27,-1 0,-10 -30,-1 -11,-15 -3,-5 -21,-14 -15,0 -10,-3 -21,11l11 10c-7,8 -5,7 -17,6 13,-11 9,1 2,-18 -20,3 -8,4 -14,13l-8 -12 -8 24 -11 -12c-11,8 3,2 -4,17l-15 -24 -11 4 -3 -24 0 -14c-2,15 -7,20 1,32 -16,-4 -1,3 -11,-11 -7,-10 -9,-13 -19,-17 -12,-4 -2,-3 -16,-2 0,-15 8,-13 -4,-18l-18 1 -9 -26 -13 5c5,-15 9,-25 -1,-35 -14,14 -1,18 -4,39 -13,-25 -6,-22 -10,-46l-12 12 -2 -22c-6,-1 -20,8 -29,-22 -9,-28 -19,-16 -25,-33l-59 -77 1 27zm294 -63l-115 37c0,3 3,14 3,15 3,11 4,-1 5,12 -12,13 -4,4 -20,9 0,1 1,0 2,1 0,1 1,0 2,0 18,7 2,-7 5,6 5,18 10,15 21,26 -2,11 -6,4 -2,14 2,5 -3,4 4,3 12,-1 2,-2 3,-3 0,-2 -8,-1 7,-9 15,-7 9,-7 16,-11 8,23 -5,-3 -1,32 19,11 6,-9 24,13l-33 -86 76 43 1 -33 -13 -5 25 -16 8 4 2 58 28 -50 10 3 8 51c0,-13 -2,-33 4,-44l38 6 8 33 -12 -20 -20 33 26 18 8 -19 5 -9c5,9 1,10 12,17 16,-31 -22,-35 -4,-50 14,12 -1,17 15,27 6,-12 -3,-24 -4,-35 20,-7 14,9 19,21 11,-3 8,-9 16,-1l-4 -15c-12,1 -14,-2 -15,-14 11,-7 10,-5 21,-1 9,3 -2,-2 10,-3 30,34 5,43 -13,52 -14,7 -2,6 -25,11l-7 -11 -2 24c-11,2 -13,-3 -22,-9l31 25 -1 4 1 37 -1 -3 10 22c5,9 4,18 6,30 10,-8 6,-11 11,-10 -1,14 0,11 4,16 4,-9 12,-7 6,-24 -4,-15 5,-9 -2,-12 1,14 4,15 11,33 17,-9 5,-6 14,-17 -9,-6 -9,1 -14,-16 -4,-15 13,-16 -4,-26l12 -19c0,0 15,8 28,0 21,-14 7,-9 6,-26 10,-8 8,-4 18,-2 -2,-7 -15,-18 -1,-31l14 20 2 -14 10 2c-8,-7 -9,-5 -5,-13 12,0 7,-2 15,10l5 7 -27 -99 -42 8 19 -24 -246 -3zm-305 104l-63 67 -105 99 -157 84c-19,3 -31,18 -54,18l0 4 319 0 46 -265 23 4 2 261 21 0 0 -6 -32 -266zm746 -558l-16 17 -115 64 1 5 40 21 67 -15c46,52 -27,104 -49,145 -32,62 -127,-8 -157,-42l-27 -108 11 -5 33 18 14 -13 -66 -23 -5 5 -3 39 -21 -29 -11 5 45 90c17,27 17,22 38,40 9,7 17,11 22,18 8,9 11,15 20,21l84 104c10,-9 102,-154 105,-164 12,-40 48,-212 35,-241l-11 66 -7 -1 -10 -90 -9 1 -8 72zm40 542l-68 234 -45 54 153 0c9,-28 66,-105 50,-137 -11,-22 -52,-113 -42,-140l-12 -11 -22 -11 -14 11zm-577 -131c24,-1 16,0 30,-13 13,-12 26,-12 31,-19l4 20c-8,4 -24,7 -26,20 14,2 6,-5 29,-2 18,3 19,1 36,-2 12,-3 47,7 59,11 -32,2 -54,-21 -64,8l-17 -2 -8 17 -71 -12 -18 26 111 -9 246 3 -19 24 42 -8 27 99 10 9c7,-13 -14,-31 6,-52 9,18 1,24 18,38l-5 -28c-11,-14 0,-41 0,-55l-4 -6 -12 -1 -7 -4c0,1 -1,1 -1,3l-4 11c-13,-10 -12,-2 -20,-18 -20,-39 -39,-18 -80,-20 4,-10 7,-8 7,-17l-38 0c5,-16 -13,11 4,-6 0,-1 1,-2 1,-2l42 -9c5,0 10,3 17,1l5 -3c9,-2 -9,-5 3,1 6,3 -4,1 3,2l6 4c11,-3 19,-14 24,-25l-17 -8 -22 -15 -16 23 0 -5 -55 -31 -9 2 -12 -16 -38 11 5 18 -12 -18 4 20 -50 23 7 -22 -77 -95 17 30 5 -6c-4,21 -5,12 8,24l-6 21 17 1 -9 26c-15,-12 5,-10 -23,-24 -16,14 -5,18 -22,18 -21,2 -9,0 -27,14l-1 -12c-1,11 -11,12 -10,1l-24 36zm617 419l336 0 -265 -144 7 -4 -70 -129c-10,27 31,118 42,140 16,32 -41,109 -50,137zm-595 -627c-52,11 -57,54 -122,15 -29,-17 -11,-28 -5,-49 11,-36 -17,-12 -26,-13l-2 -46c21,0 55,55 135,25 68,-26 60,-23 69,42l31 -19 -6 -58 -4 9 -35 -27c-14,1 1,0 -10,3 -2,1 -7,1 -12,3l-123 22 -78 -59c-55,9 -35,68 -24,115l21 -1 13 47 11 -4 -1 36 83 57 -1 -9 86 -89zm28 396l-2 5c21,1 -8,4 9,4 13,0 -4,-1 11,-4 7,-2 18,0 22,7l-9 25c4,10 11,7 15,6 -3,13 7,19 -7,28l7 15c-13,5 -1,-1 -4,2 -1,0 -6,5 -9,7 -2,14 -7,14 -7,19 -2,11 9,3 -8,19 10,4 7,-11 15,-21 14,4 16,7 12,22 4,-8 12,-12 15,-16 4,-7 -3,-10 7,-22l4 27c0,-20 -1,-17 9,-33 -9,-18 -12,-32 9,-41 1,18 -17,33 4,52l12 -10 15 14c7,-11 4,2 7,-18 8,1 6,4 13,-2 4,-2 5,-7 6,-15 2,-23 7,-4 16,-33 6,8 4,9 16,9l-2 22c9,-1 4,1 14,-13l3 37c8,-5 0,-15 14,-15l-1 -12 -10 -22 1 3 -1 -37 1 -4 -31 -25 -2 -4 -8 19 -26 -18 20 -33 12 20 -8 -33 -38 -6c-6,11 -4,31 -4,44l-8 -51 -10 -3 -28 50 -2 -58 -8 -4 -25 16 13 5 -1 33 -76 -43 33 86zm-301 -970l-9 15 -18 71c15,-2 13,9 16,-6l8 12 -5 7c9,42 5,24 -11,67l9 -14c7,9 8,10 5,21 -3,17 -5,1 1,18 3,10 0,33 -4,45l-10 -3 8 13c-9,18 -10,8 -9,28 -6,0 -11,-10 -19,7 -7,18 6,15 4,36 -21,15 -8,-8 -25,6 15,8 33,15 31,33l31 77 16 2 26 -402c-8,-8 0,-28 -19,-28 24,-19 14,-24 14,-30 0,-14 9,3 2,-12 -13,5 -12,8 -23,15 -9,6 -22,10 -6,18 -6,-5 -10,-1 -13,4zm42 929l32 266 18 -149 -14 -4 5 3 -7 -61 10 -4 81 221 37 0c-1,-9 -8,-28 -18,-32l18 10c-2,-14 -11,-7 -7,-20 7,-25 0,-12 4,-24l-18 -5 5 -17c-7,-6 1,1 -8,-2 6,-28 6,-6 -10,-42 -4,-10 -6,-8 -2,-17l-115 -164 -11 41zm706 20c12,-14 82,-139 86,-59l3 0 33 -174 0 -12 31 -15c-10,-6 -8,-3 -21,-4 -8,-35 -7,-32 0,-69 4,-19 -2,-52 15,-61l14 -13 -15 4 -26 -60 -10 -1 -31 262 -15 -1 -46 110 16 -11 9 5 -43 99zm-122 -675l-54 24 85 3 103 6 -3 -30 4 -2 15 15 9 -3 -10 -71 2 -3 6 3 -6 -5 32 -191 -60 -1 21 20 -15 -2 -44 141 6 -5 38 108 -14 5 -115 -12zm-154 358l12 -16 -43 -216 15 -1 -43 -31 -7 4 -18 266 6 4 78 -10zm345 -475l-19 -14 9 0 87 403 15 -4 23 -107c-7,-6 -29,-28 -36,-29l-2 21 -20 -91 -12 -145 12 45 11 -2 -26 -115 12 -17 -18 -11 -1 13 -11 -14c6,10 9,13 7,25l-10 -14c3,17 15,26 7,42l-14 -13c0,18 5,4 6,23 0,8 4,12 9,21l6 -8c3,11 7,8 4,22l-10 3 -21 -40c-9,8 3,7 -8,6zm-824 452l1 1c0,9 1,18 1,26 0,13 -2,8 2,22 3,14 9,36 8,49l-2 54 50 127 -1 -27 59 77 13 1 -83 -196 18 -9 5 10 4 -1 -53 -165 -4 8 -20 -108 -3 0 5 131zm939 -272c14,-23 21,-32 40,-28 2,11 6,15 8,23 5,15 9,66 -8,80l-2 -25c-10,-3 -8,0 -15,3 -14,-44 -12,-23 -23,-53zm-2 -50l-48 64 5 6 44 -14 5 2 -4 90 -23 107 -14 13 15 1c8,13 0,23 4,35 5,17 3,-5 8,15 2,7 1,14 3,24 5,-25 17,-36 20,-58l51 -154c1,-45 15,-160 -66,-131zm-657 287l49 -26c-9,-65 -1,-68 -69,-42 -80,30 -114,-25 -135,-25l2 46c9,1 37,-23 26,13 -6,21 -24,32 5,49 65,39 70,-4 122,-15zm303 -186l-95 6 16 233c22,1 12,17 30,2 -20,-2 -5,-2 -19,-8 -2,-13 1,-19 0,-32 -1,-19 0,-14 7,-29l15 0 -5 -7 4 -8 -45 -90 11 -5 21 29 3 -39 5 -5 66 23 108 20 -40 -21 -1 -5 115 -64 -25 39 -48 -6 -3 2 5 -19 -3 1 -32 -7c-4,16 -10,16 -28,15 -18,-1 -19,-2 -30,-14l-8 -24 -24 13zm-324 -87c-24,3 -72,-12 -92,6l15 1c-21,8 -30,3 -54,13 23,1 39,-9 68,-4 21,3 9,7 24,11 13,4 19,-1 35,6 -21,14 -50,-5 -111,38 -5,4 -8,7 -12,12 -5,7 -9,10 -13,16l24 -4c8,-24 71,-72 123,-47 -10,7 -21,0 -31,3l-62 21c-10,6 -18,11 -22,20 1,0 1,0 2,1l6 3c3,2 6,3 11,5 5,-11 1,-12 16,-19 9,-4 18,-8 28,-10l2 21 1 3c12,-6 -2,3 5,-8 20,1 23,12 33,9 16,-5 8,-6 9,-11 -24,-14 -26,4 -39,-10 18,-2 29,-12 37,3l4 8c1,0 1,1 2,1l9 9c4,2 0,2 9,5l7 -19c-2,7 11,19 17,13 7,9 2,1 2,8 0,1 0,3 0,4l-1 1c31,0 -2,-11 27,-17 10,-2 20,4 33,-2 -2,-14 -6,-21 -5,-42 -12,-9 -49,-31 -55,-39l-10 -9 -45 -8 3 8zm438 229c27,11 2,29 -7,31 -2,0 -28,15 -24,-1l-8 11c-20,-11 -8,3 -29,-7l6 -13c-16,20 -7,15 -25,6 -9,-5 -4,3 -15,-7 -6,-5 -7,-7 -16,-14l11 -8 -8 -13c15,-8 4,2 16,1 1,-1 11,-4 15,-4 13,-1 24,9 32,6 8,-4 70,-19 52,12zm-131 36l127 37 47 -46 7 8c24,-105 -32,-79 -127,-80l-37 -14 -33 -18 -11 5 27 108zm-357 280l28 -7c-1,-3 -5,-9 -7,-10 -13,-7 5,11 -8,-1 -8,-10 3,-20 4,-31 0,-12 -10,-12 4,-22 19,-14 -20,16 17,-4 -12,6 -5,14 1,22l5 -8c-4,-7 9,-16 10,-34 -22,11 -1,1 -11,-2l-29 7c-12,-17 20,-61 31,-79 9,-17 40,-73 59,-71l3 21 7 18 5 2c28,-45 121,101 148,12l-157 -38 -2 -5 9 -43c-36,-8 -172,141 -132,208l3 -12 12 77zm119 -199l5 6 77 95 -7 22 50 -23 -4 -20 12 18 -5 -18 38 -11 12 16 9 -2 1 1c-2,-19 2,-11 2,-27 14,-5 0,10 17,-9l6 13c-2,-3 -3,-27 -1,-33 3,-19 13,-12 7,-36 -16,4 -26,0 -40,2 -15,3 -15,12 -30,18l-1 0c-27,89 -120,-57 -148,-12zm254 -792l-21 61 27 -1 1 8 -33 12 24 9 -24 9 75 64 49 -82 -39 -47 21 -19 2 -13 -82 -1zm-593 1346l71 0 -2 -261 -23 -4 -46 265zm671 -99l-123 99 100 0c3,-14 46,-25 56,-43l40 -46 -22 20 15 -60 -6 -8 -60 38zm-77 -631l37 14c95,1 151,-25 127,80l-7 -8 -47 46 -127 -37c30,34 125,104 157,42 22,-41 95,-93 49,-145l-67 15 -108 -20 -14 13zm-67 260l-1 -1 55 31 0 5 16 -23 22 15 21 0 -11 -31 5 -2 15 52 28 -31c3,-32 -33,-40 -35,-43l-10 -19c0,0 0,-5 -2,-10 -11,-23 -30,-31 -54,-32 -4,10 -20,24 -3,41 -20,17 -5,-2 -14,20 -7,19 -7,2 -13,23 -8,-5 -5,-4 -6,-13l-13 18zm-435 464l0 6 93 0 -81 -221 -10 4 7 61 -5 -3 14 4 -18 149zm674 -246c-1,1 -4,11 -4,12 -4,6 -2,2 -6,5 -4,3 -5,8 -11,16l47 -28 18 20 -139 128 60 -38 6 8 -15 60 22 -20 102 -199 14 -11c-5,-5 -7,-6 -12,-10l4 -2c-4,-80 -74,45 -86,59zm-91 -648c3,9 9,11 19,11l71 5 -5 22 -110 -10 -1 6 71 24 -80 -18 -2 9 33 6c23,0 32,9 48,23 8,6 8,0 9,13 -8,5 -9,8 -17,-1 -9,-10 -9,-8 -17,-17l-10 24 32 7 3 -1 -5 19 3 -2 48 6 25 -39 16 -17 -26 -15 9 -2 -11 -47 -103 -6zm-588 -421c-1,11 -1,15 -12,18 -5,12 -7,-2 -19,20 -8,15 -4,12 -20,10 8,11 -2,15 -15,24 -6,13 3,14 -5,31 -1,3 -4,3 2,17 3,-5 7,-9 13,-4 -16,-8 -3,-12 6,-18 11,-7 10,-10 23,-15 7,15 -2,-2 -2,12 0,6 10,11 -14,30 19,0 11,20 19,28 16,-7 -12,-15 16,-22 2,-10 -2,-1 -3,-5l6 -39c7,-24 26,-67 46,-82 15,-12 30,-22 30,-39l13 -19c0,-1 1,-1 1,-1 4,-4 4,-11 6,-16l-10 -8c-13,5 1,2 -7,5 -3,1 0,0 -6,-1l-2 19c-22,3 -8,-1 -24,18 -17,19 -19,3 -15,21 -10,-6 -16,-12 -27,4 5,2 5,0 9,8l-9 4zm53 417l-15 9c-8,4 -12,14 -14,23 -1,3 1,15 -17,24 21,24 -10,30 36,47 4,-6 8,-9 13,-16 4,-5 7,-8 12,-12 61,-43 90,-24 111,-38 -16,-7 -22,-2 -35,-6 -15,-4 -3,-8 -24,-11 -29,-5 -45,5 -68,4 24,-10 33,-5 54,-13l-15 -1c20,-18 68,-3 92,-6 -4,-4 -19,-15 -27,-16 -5,-1 -29,2 -36,1 -26,0 -3,-3 -28,4 -7,2 -28,5 -39,7zm450 1l-84 42 -7 54 95 -6 -13 3c28,-24 50,-43 90,-35l-33 -6 2 -9 80 18 -71 -24 1 -6 110 10 5 -22 -71 -5c8,8 -2,5 15,6 -12,1 -20,9 -41,10 -19,1 -30,0 -47,6l22 6 -66 27c-11,-7 -1,-6 -9,-8 -8,-3 3,6 -13,-1 4,-8 12,-11 12,-12 1,-3 -3,-3 4,-14 9,-13 0,-12 20,-20 23,-11 74,-6 84,-11l-85 -3zm-42 262c10,16 16,14 20,40 1,8 0,16 -5,22 -9,10 -5,4 -18,7 -18,15 -8,-1 -30,-2 -12,8 -23,18 -27,32 15,-6 15,-15 30,-18 14,-2 24,2 40,-2 6,24 -4,17 -7,36 -2,6 -1,30 1,33l-6 -13c-17,19 -3,4 -17,9 0,16 -4,8 -2,27l13 -18c1,9 -2,8 6,13 6,-21 6,-4 13,-23 9,-22 -6,-3 14,-20 -17,-17 -1,-31 3,-41 24,1 43,9 54,32 2,5 2,10 2,10l10 19c2,3 38,11 35,43l8 -11 13 34c2,-10 5,-14 -3,-22l9 14c6,-10 3,-18 -3,-27 -11,-16 -4,0 -6,-17 -16,-9 -13,-11 -24,-19 -23,-18 3,-1 -14,-21 -17,-18 -17,-34 -30,-53 -9,-6 -12,-12 -20,-21 -5,-7 -13,-11 -22,-18 -21,-18 -21,-13 -38,-40l-4 8 5 7zm-109 -567c-17,-6 9,-21 7,-25 -10,-28 -24,8 -24,8 -6,-23 -9,-23 -33,-5 -6,4 -34,28 -35,31 4,8 4,2 8,4 5,1 5,5 9,10 14,13 8,-13 21,23 6,15 44,32 56,16 -2,-5 -20,-17 -9,-24 10,-5 19,15 23,-2l-17 -10c25,-3 33,8 46,-9 17,-22 -13,-24 -14,-29 20,-8 22,-6 15,-27 -6,5 -2,10 -13,8 -12,-1 -5,0 -11,6 -5,5 -11,0 -15,3 -6,5 -4,14 -14,22zm26 1047c-1,8 -2,13 -6,15 -7,6 -5,3 -13,2 -3,20 0,7 -7,18 7,12 3,-3 -3,7 -7,13 -1,5 -4,23 -10,-13 -3,1 -9,-6 -6,-6 0,2 -4,-6 -3,-5 4,3 -3,-9 -12,13 0,3 -8,11 -6,6 3,3 -8,5 18,9 10,-1 21,14 30,-9 3,0 30,1l8 -14 8 9 12 -13c13,18 1,4 15,3 7,18 3,28 1,46 13,3 8,-5 11,13 10,-4 12,2 16,-4 4,-5 0,-7 11,-16l10 21c-5,-21 32,-47 51,-44l5 -15c-10,-2 -8,1 -17,0l-13 -4c6,-23 28,-51 7,-48l-1 2 -5 28 -8 -1c3,12 3,18 -4,29l-3 -13 -8 8c-4,-6 -5,-7 -1,-11l-8 12c-9,-3 -22,-13 -31,-9 5,-13 4,-6 -2,-14 -8,-1 -8,-4 -13,6 -3,-10 5,-11 7,-25 -9,10 -1,10 -14,14 -10,-26 11,-16 4,-50 0,2 -14,16 -17,19l-7 -4zm25 -408l-78 10 -6 -4 18 -266 7 -4 43 31 -15 1 43 216 -29 -243 11 -5 -64 -11c-6,17 -18,179 -21,210 -30,2 -36,-8 -43,-8 -6,0 -24,46 -24,46l2 9 156 18zm-499 -546c0,78 -15,77 -13,103 1,31 5,10 -8,34 -8,13 -2,8 -2,18 -1,7 -6,7 -10,18l16 20c-16,6 -8,4 -21,-2l0 20c-20,7 -38,2 -49,19l-15 7 9 5c10,-7 11,-22 29,-20 0,0 11,3 15,4 12,4 8,2 17,11 17,-14 4,9 25,-6 2,-21 -11,-18 -4,-36 8,-17 13,-7 19,-7 -1,-20 0,-10 9,-28l-8 -13 10 3c4,-12 7,-35 4,-45 -6,-17 -4,-1 -1,-18 3,-11 2,-12 -5,-21l-9 14c16,-43 20,-25 11,-67l5 -7 -8 -12c-3,15 -1,4 -16,6zm210 853c-2,17 -6,11 -3,29 3,29 11,1 10,21 5,-18 22,-28 14,-37 10,11 7,2 20,-3 22,-10 -1,5 17,-2 0,25 -9,10 -18,27 4,-1 4,0 6,0 16,-1 -2,4 17,-1 -4,15 -4,8 -11,18 11,-3 6,-2 14,-11 7,-8 5,-3 13,-14l3 11c1,2 0,3 6,-1l-6 15c10,3 -12,3 3,-1 25,-6 -11,1 8,-2l-6 22c6,-20 1,-9 -2,-9l-16 25c7,4 3,4 13,1 0,-1 -10,-5 6,-2 -2,12 -6,8 1,17 19,-15 -8,-19 13,-35 0,-1 1,-1 1,-2 33,-24 11,-10 13,-30l2 -5c-18,-22 -5,-2 -24,-13 -4,-35 9,-9 1,-32 -7,4 -1,4 -16,11 -15,8 -7,7 -7,9 -1,1 9,2 -3,3 -7,1 -2,2 -4,-3 -4,-10 0,-3 2,-14 -11,-11 -16,-8 -21,-26 -3,-13 13,1 -5,-6 -1,0 -2,1 -2,0 -1,-1 -2,0 -2,-1 16,-5 8,4 20,-9 -1,-13 -2,-1 -5,-12 0,-1 -3,-12 -3,-15l0 9c-10,-7 -3,-17 -18,8 -13,20 3,11 -15,14 -3,0 8,-11 -7,2 4,9 10,31 19,23 -15,1 -22,10 -28,21zm-37 -500c13,26 35,32 64,33 17,1 32,1 44,-3 9,-3 30,-10 32,-10 5,-2 10,-2 12,-3 11,-3 -4,-2 10,-3l0 -5c11,-5 22,-6 18,-20 -2,15 7,6 10,7l5 -17c-2,0 -20,5 -21,5 -6,3 -4,8 -4,9 -13,2 -15,6 -26,8 -10,2 -14,-1 -25,-1 24,-13 -10,-6 24,-22l-17 -4c-17,4 -28,4 -45,1 8,14 3,-7 14,12l-19 2c-7,0 -10,0 -17,-3 -13,-4 -14,-3 -23,-12 18,-1 9,-2 8,-5l-9 -4c-7,6 -7,2 -14,6 9,5 11,6 15,15 -14,6 -20,0 -33,-3 3,13 -2,3 7,16l-10 1zm-54 179l-11 -4c-8,-6 -7,-14 -11,-17 -4,-5 -2,7 -12,-7 -7,-11 6,0 -4,-18l-12 1c-8,22 5,-8 -1,36l6 3c-6,30 9,13 13,37 2,13 6,42 18,47 8,-11 5,-23 9,-36 9,41 17,48 18,51 1,4 0,15 1,23 3,19 8,22 6,44 -2,17 -5,30 0,46 9,-9 2,-35 20,-11 0,-13 -3,-13 -2,-26 2,-57 8,1 -4,-84 -3,-19 -6,-22 -19,-39 -9,-11 -19,-11 -15,-46zm154 167l5 -3 24 -36c-1,11 9,10 10,-1l1 12c18,-14 6,-12 27,-14 17,0 6,-4 22,-18 28,14 8,12 23,24l9 -26 -17 -1 6 -21c-13,-12 -12,-3 -8,-24l-5 6 -17 -30 -5 -6 -5 -2c21,47 -19,51 -13,80l7 -17c4,12 3,20 -8,28 -7,-3 0,-4 -5,-7 -3,-1 2,8 -9,-6l-13 16c-5,-2 -6,-5 -3,-8 -19,12 -3,-9 -20,10 -4,-9 -1,-6 -3,-7l-2 -1c-10,-5 -7,-5 -14,-4 -12,2 -12,6 -14,10 5,-8 10,-23 17,-30 12,-14 13,-12 21,-31 14,-34 28,-40 44,-55l8 4 -3 -21c-19,-2 -50,54 -59,71 -11,18 -43,62 -31,79l29 -7c10,3 -11,13 11,2 -1,18 -14,27 -10,34zm311 266l1 -2 5 -12c-1,2 -5,1 3,0 1,-1 4,-2 4,-2 10,1 3,-3 10,9 9,-10 7,0 6,-12 -5,10 -2,5 5,10l5 -20c0,-1 2,-7 3,2 2,17 -9,12 3,29 12,-17 13,-28 0,-44 6,13 42,17 22,38 -2,-8 1,-6 7,-9 5,-14 9,-2 5,-16 -3,-9 -6,-5 -2,-16 7,13 -2,10 9,14 -5,-15 -11,-23 -13,-33 -3,-14 -1,-7 -6,-20 -4,-10 -6,-3 -1,-15l20 20c1,-7 4,-10 1,-16 -4,-9 1,-1 -4,-3 -8,-3 4,4 -6,-1 0,-20 -5,-10 4,-16 -8,-12 -3,-10 -15,-10 -4,8 -3,6 5,13l-10 -2 -2 14 -14 -20c-14,13 -1,24 1,31 -10,-2 -8,-6 -18,2 1,17 15,12 -6,26 -13,8 -28,0 -28,0l-12 19c17,10 0,11 4,26 5,17 5,10 14,16zm-241 -406l-7 -18 -8 -4c-16,15 -30,21 -44,55 -8,19 -9,17 -21,31 -7,7 -12,22 -17,30 2,-4 2,-8 14,-10 7,-1 4,-1 14,4l2 1c2,1 -1,-2 3,7 17,-19 1,2 20,-10 -3,3 -2,6 3,8l13 -16c11,14 6,5 9,6 5,3 -2,4 5,7 11,-8 12,-16 8,-28l-7 17c-6,-29 34,-33 13,-80zm554 71c9,-9 3,-6 18,-6 1,-9 -9,1 7,-10 18,-12 17,-11 27,-29 7,-13 -3,12 1,-7 4,-13 15,-1 12,-28l8 -46c5,-13 10,-16 2,-18 -3,22 -15,33 -20,58 -2,-10 -1,-17 -3,-24 -5,-20 -3,2 -8,-15 -4,-12 4,-22 -4,-35l-15 -1c-17,9 -11,42 -15,61 -7,37 -8,34 0,69 13,1 11,-2 21,4l-31 15 0 12zm-258 -590l1 -12c13,-5 2,6 14,-6l-23 -2c13,4 3,0 9,-10 -13,-13 -4,-2 -14,-6 1,-27 0,3 10,-14 11,-19 -8,-3 5,-22 5,-9 13,-19 12,-28 -1,-9 -9,-3 0,-7l-7 -10c-9,9 -10,6 -8,19 -2,-18 -31,22 -34,26 -20,24 -46,17 -27,32 -25,6 -15,-12 -35,14 33,32 11,10 40,12 9,1 6,4 8,6 10,12 -12,-7 8,-1 18,15 5,11 11,22l16 -9 -3 -11c7,10 1,-2 17,7zm-389 848c0,1 -2,5 -2,5 -3,4 -1,1 -5,5 -5,4 -1,-3 -8,6 8,2 -2,-6 7,0 15,10 -3,23 -3,24 -9,18 11,26 15,36 15,-12 3,-11 14,-15 -4,9 -4,3 -7,13 -1,5 1,8 0,17 12,5 4,3 4,18 14,-1 4,-2 16,2 10,4 12,7 19,17 10,14 -5,7 11,11 -8,-12 -3,-17 -1,-32l0 14c14,-5 12,-5 11,-20 3,4 -5,8 8,2 -5,-8 -9,-17 -8,-25 9,11 4,14 -4,21 0,0 -8,3 -8,-13 1,-13 15,-16 2,-16l-21 0c-11,0 -1,6 -8,0l10 -17c-10,3 -6,3 -13,-1l16 -25c3,0 8,-11 2,9l6 -22c-19,3 17,-4 -8,2 -15,4 7,4 -3,1l6 -15c-6,4 -5,3 -6,1l-3 -11c-8,11 -6,6 -13,14 -8,9 -3,8 -14,11 7,-10 7,-3 11,-18 -19,5 -1,0 -17,1 -2,0 -2,-1 -6,0zm-99 -35l-13 -1c6,17 16,5 25,33 9,30 23,21 29,22l2 22 12 -12c4,24 -3,21 10,46 3,-21 -10,-25 4,-39 10,10 6,20 1,35l13 -5 9 26 18 -1c1,-9 -1,-12 0,-17 3,-10 3,-4 7,-13 -11,4 1,3 -14,15 -4,-10 -24,-18 -15,-36 0,-1 18,-14 3,-24 -9,-6 1,2 -7,0 7,-9 3,-2 8,-6 4,-4 2,-1 5,-5 0,0 2,-4 2,-5 9,-17 18,-2 18,-27 -18,7 5,-8 -17,2 -13,5 -10,14 -20,3 8,9 -9,19 -14,37 1,-20 -7,8 -10,-21 -3,-18 1,-12 3,-29l-2 -8c-10,7 -1,7 -18,22 -2,-8 5,-1 -3,-15 -8,10 -7,15 -22,12 0,0 -1,0 -2,-1 -16,-5 -1,-6 -12,-10zm-188 -322c-1,15 1,-5 4,15 -5,1 -9,-11 -5,4 3,10 5,2 5,22 15,5 7,6 17,13 8,6 12,6 21,11 5,-23 4,-7 -1,-22l12 -19c-19,6 -3,11 -21,15 4,-18 12,-13 15,-30l6 3c1,-12 -1,-10 5,-19l-1 -1c-18,-11 4,-5 -9,-20 -1,-2 -24,-21 -32,-35l-7 -12c-5,-6 -1,5 -4,-4 -11,-18 -4,-25 -24,-45 -18,28 33,90 40,115 -19,-4 -16,-13 -26,-22l5 31zm639 -102l8 13 -11 8c9,7 10,9 16,14 11,10 6,2 15,7 18,9 9,14 25,-6l-6 13c21,10 9,-4 29,7l8 -11c-4,16 22,1 24,1 9,-2 34,-20 7,-31 18,-31 -44,-16 -52,-12 -8,3 -19,-7 -32,-6 -4,0 -14,3 -15,4 -12,1 -1,-9 -16,-1zm151 597l-40 46c25,0 6,-7 34,-7 -1,-2 4,-32 23,-42 0,0 1,0 1,0l9 -6c0,13 0,16 -5,25l10 -1c4,23 -6,7 2,20l68 -234 -102 199zm-475 -330l-5 3 -5 8c-6,-8 -13,-16 -1,-22 -37,20 2,-10 -17,4 -14,10 -4,10 -4,22 -1,11 -12,21 -4,31 13,12 -5,-6 8,1 2,1 6,7 7,10 7,-4 6,3 6,-5l18 -26 71 12 8 -17 17 2c10,-29 32,-6 64,-8 -12,-4 -47,-14 -59,-11 -17,3 -18,5 -36,2 -23,-3 -15,4 -29,2 2,-13 18,-16 26,-20l-4 -20c-5,7 -18,7 -31,19 -14,13 -6,12 -30,13zm48 193c-2,20 20,6 -13,30 0,1 -1,1 -1,2 -21,16 6,20 -13,35 -7,-9 -3,-5 -1,-17 -16,-3 -6,1 -6,2l-10 17c7,6 -3,0 8,0l21 0c13,0 -1,3 -2,16 0,16 8,13 8,13 8,-7 13,-10 4,-21 -1,8 3,17 8,25l2 12c7,-12 0,-11 10,-18 11,-8 6,2 8,5 7,-29 -9,-19 14,-35 -3,9 -6,9 -2,24 3,-2 8,-7 9,-7 3,-3 -9,3 4,-2l-7 -15c14,-9 4,-15 7,-28 -4,1 -11,4 -15,-6l9 -25c-4,-7 -15,-9 -22,-7 -15,3 2,4 -11,4 -17,0 12,-3 -9,-4zm35 90c-4,-15 -1,-15 2,-24 -23,16 -7,6 -14,35 -2,-3 3,-13 -8,-5 -10,7 -3,6 -10,18l-2 -12c-13,6 -5,2 -8,-2 1,15 3,15 -11,20l3 24 11 -4 15 24c7,-15 -7,-9 4,-17l11 12 8 -24 8 12c6,-9 -6,-10 14,-13 7,19 11,7 -2,18 12,1 10,2 17,-6l-11 -10c11,-14 6,-11 21,-11 11,-2 2,1 8,-5 8,-8 -4,2 8,-11 7,12 0,4 3,9 4,8 -2,0 4,6 6,7 -1,-7 9,6 3,-18 -3,-10 4,-23 6,-10 10,5 3,-7l-15 -14 -12 10c-21,-19 -3,-34 -4,-52 -21,9 -18,23 -9,41 -10,16 -9,13 -9,33l-4 -27c-10,12 -3,15 -7,22 -3,4 -11,8 -15,16 4,-15 2,-18 -12,-22 -8,10 -5,25 -15,21 17,-16 6,-8 8,-19 0,-5 5,-5 7,-19zm483 -908c11,1 -1,2 8,-6l21 40 10 -3c3,-14 -1,-11 -4,-22l-6 8c-5,-9 -9,-13 -9,-21 -1,-19 -6,-5 -6,-23l14 13c8,-16 -4,-25 -7,-42l10 14c2,-12 -1,-15 -7,-25l11 14 1 -13 18 11c-3,-17 3,-40 -4,-51 -6,-10 -3,1 -7,-10 -2,-7 -1,-7 -3,-13 -3,-9 -9,-13 -18,-17l9 18c-8,-12 0,-6 -11,-9 0,15 4,5 0,13 -3,6 -2,-8 -4,3 0,3 6,16 8,21l-9 -9c-3,13 -5,14 -6,25 -1,12 -1,-1 2,19l-15 1 9 9c-22,-4 -1,-2 -24,5 6,15 15,35 19,50zm-937 171c-2,27 -17,50 -12,78 18,-5 5,-7 6,-11 2,-4 4,-6 9,-12 1,-7 15,-39 21,-44 16,-2 16,4 25,15 8,9 36,19 46,69l5 7c9,-3 5,0 9,-11 5,11 -1,18 5,11 8,-10 -9,-31 -12,-33 -14,-9 9,14 -4,-2l-6 -39c2,-18 -16,-25 -31,-33 -9,-9 -5,-7 -17,-11 -4,-1 -15,-4 -15,-4 -18,-2 -19,13 -29,20zm916 -398l-1 0c-9,-13 -4,-4 -11,-10 -9,-8 2,-6 -11,-9 -2,9 4,-4 1,8l-15 -7c11,13 7,6 2,15 -6,-7 -15,-14 -16,-15 0,0 -25,-56 -57,-32 -1,11 17,23 25,31 -17,24 26,77 53,69 3,-14 -11,-17 -15,-36 17,7 5,22 27,21 -1,-10 -3,-30 3,-34 6,11 5,27 21,28 -3,-13 -14,-19 -6,-29zm-492 380c6,8 43,30 55,39 -1,21 3,28 5,42 -13,6 -23,0 -33,2 -29,6 4,17 -27,17l1 -1c0,-1 0,-3 0,-4 0,-7 5,1 -2,-8 -6,6 -19,-6 -17,-13l-7 19 -7 10 17 4c-34,16 0,9 -24,22 11,0 15,3 25,1 11,-2 13,-6 26,-8 0,-1 -2,-6 4,-9 1,0 19,-5 21,-5l-1 -17 21 13c13,-21 13,-21 14,-43 1,-21 17,-27 17,-46 -23,-5 -27,0 -46,-10 -3,-1 -6,-4 -9,-5 -9,-4 -2,3 -33,0zm382 848c-10,18 -53,29 -56,43l85 0 45 -54c-8,-13 2,3 -2,-20l-10 1c5,-9 5,-12 5,-25l-9 6c0,0 -1,0 -1,0 -19,10 -24,40 -23,42 -28,0 -9,7 -34,7zm-37 -314c6,-11 11,-7 12,-8 -3,-4 -2,-23 -1,-25 -9,-8 1,2 -8,-3 -6,-4 -3,-1 -7,-5 0,-1 -5,-11 -8,-15 -6,13 6,1 -2,15 -6,-9 1,-5 -6,-12 -8,-9 2,2 -8,-3 5,-9 4,-21 -3,-22 -5,11 -13,22 -24,25l-6 -4c-7,-1 3,1 -3,-2 -12,-6 6,-3 -3,-1l-5 3c-7,2 -12,-1 -17,-1l-42 9c0,0 -1,1 -1,2 -17,17 1,-10 -4,6l38 0c0,9 -3,7 -7,17 41,2 60,-19 80,20 8,16 7,8 20,18l4 -11c0,-2 1,-2 1,-3zm27 -532c-10,0 -16,-2 -19,-11 -10,5 -61,0 -84,11 -20,8 -11,7 -20,20 -7,11 -3,11 -4,14 0,1 -8,4 -12,12 16,7 5,-2 13,1 8,2 -2,1 9,8l66 -27 -22 -6c17,-6 28,-5 47,-6 21,-1 29,-9 41,-10 -17,-1 -7,2 -15,-6zm-4 543c0,14 -11,41 0,55l12 7c4,-10 -1,-28 11,-39 15,-15 16,-7 19,-29 1,-9 -1,-18 1,-23 5,-14 6,8 6,-18 0,-15 4,-33 -11,-41 -13,6 -4,9 -7,27 -12,-21 -13,-4 -15,7 -2,16 -8,17 -6,36l-7 -14c-2,17 5,16 -3,32zm-468 346l88 0 -25 -21 -2 10c-6,-8 -14,-10 -21,-14 -8,-4 -26,-19 -22,-5 1,-6 -1,-13 -1,-15 -4,-18 -4,-7 -6,-14 -4,-9 4,4 -3,-13 -4,-10 -6,-3 -7,-19l-37 -58c-4,9 -2,7 2,17 16,36 16,14 10,42 9,3 1,-4 8,2l-5 17 18 5c-4,12 3,-1 -4,24 -4,13 5,6 7,20l-18 -10c10,4 17,23 18,32zm243 -161l7 4c3,-3 17,-17 17,-19 7,34 -14,24 -4,50 13,-4 5,-4 14,-14 -2,14 -10,15 -7,25 5,-10 5,-7 13,-6 6,8 7,1 2,14 9,-4 22,6 31,9l8 -12c-4,4 -3,5 1,11l8 -8 3 13c7,-11 7,-17 4,-29l8 1 5 -28c-9,11 3,8 -14,17 -7,-18 -10,-19 -11,-33 7,3 -2,-3 2,12 6,17 -2,15 -6,24 -4,-5 -5,-2 -4,-16 -5,-1 -1,2 -11,10 -2,-12 -1,-21 -6,-30l1 12c-14,0 -6,10 -14,15l-3 -37c-10,14 -5,12 -14,13l2 -22c-12,0 -10,-1 -16,-9 -9,29 -14,10 -16,33zm111 9c21,-3 -1,25 -7,48l13 4c9,1 7,-2 17,0 4,-9 16,-18 26,-20 15,-4 26,-24 24,-43 -6,3 -9,1 -7,9 20,-21 -16,-25 -22,-38 13,16 12,27 0,44 -12,-17 -1,-12 -3,-29 -1,-9 -3,-3 -3,-2l-5 20c-7,-5 -10,0 -5,-10 1,12 3,2 -6,12 -7,-12 0,-8 -10,-9 0,0 -3,1 -4,2 -8,1 -4,2 -3,0l-5 12zm119 -100c1,15 2,21 13,25 -11,10 -6,3 -5,12 -7,3 -14,8 -14,9l-2 2c-9,11 -4,7 -12,9 -7,-12 -7,-20 -9,-33 -7,5 -3,8 -5,-1l-20 -20c-5,12 -3,5 1,15 5,13 3,6 6,20 2,10 8,18 13,33 11,-2 10,-3 16,-10l30 8c16,-2 7,0 14,-5l4 -5c0,0 1,0 1,-1 7,-6 17,-14 19,-25 6,-8 7,-13 11,-16 4,-3 2,1 6,-5 0,-1 3,-11 4,-12 -7,-4 -5,4 -6,-5 2,12 -20,33 -31,40 -20,-6 -3,-13 -20,-19l5 0c16,-8 -4,1 5,-7 -8,-7 -13,-2 -24,-9zm-101 -561l24 -13 8 24c0,-9 -5,0 4,-11 24,-1 -6,13 46,0l4 8c6,4 -6,2 4,2l10 -24c8,9 8,7 17,17 8,9 9,6 17,1 -1,-13 -1,-7 -9,-13 -16,-14 -25,-23 -48,-23 -40,-8 -62,11 -90,35l13 -3zm-440 8l1 0c-4,7 -15,13 -22,20 17,11 12,-6 26,17l5 6 10 -1c-9,-13 -4,-3 -7,-16 13,3 19,9 33,3 -4,-9 -6,-10 -15,-15 7,-4 7,0 14,-6l-4 -7 10 -9c17,0 2,3 22,6l-2 -21c-10,2 -19,6 -28,10 -15,7 -11,8 -16,19 -5,-2 -8,-3 -11,-5l-6 -3c-1,-1 -1,-1 -2,-1 4,-9 12,-14 22,-20l62 -21c10,-3 21,4 31,-3 -52,-25 -115,23 -123,47zm796 -59c11,30 9,9 23,53 7,-3 5,-6 15,-3l2 25c17,-14 13,-65 8,-80 -2,-8 -6,-12 -8,-23 -19,-4 -26,5 -40,28zm-640 864l37 0c-11,-10 -33,-32 -43,-35 -45,-14 -25,-27 -46,-18 -18,-49 -13,-16 -35,-38 1,16 3,9 7,19 7,17 -1,4 3,13 2,7 2,-4 6,14 0,2 2,9 1,15 -4,-14 14,1 22,5 7,4 15,6 21,14l2 -10 25 21zm-409 -818l2 29c12,-31 10,-8 22,-26 8,-12 3,-29 25,-25 17,31 -28,60 29,56l5 8 9 2 0 -4c-10,-50 -38,-60 -46,-69 -9,-11 -9,-17 -25,-15 -6,5 -20,37 -21,44zm101 95c-22,3 -9,8 -29,11 -7,-13 -9,-5 -8,-19 2,-12 6,-7 6,-27 -10,5 -5,-3 -7,8l-24 -7c-2,12 -4,12 -4,20 0,15 12,24 19,39 9,18 13,50 34,55 0,-19 -9,-25 0,-47 6,-16 11,-17 13,-33zm481 468l2 4c9,6 11,11 22,9l2 -24 7 11c23,-5 11,-4 25,-11 18,-9 43,-18 13,-52 -12,1 -1,6 -10,3 -11,-4 -10,-6 -21,1 1,12 3,15 15,14l4 15c-8,-8 -5,-2 -16,1 -5,-12 1,-28 -19,-21 1,11 10,23 4,35 -16,-10 -1,-15 -15,-27 -18,15 20,19 4,50 -11,-7 -7,-8 -12,-17l-5 9zm178 -3l-5 -7c-9,6 -4,-4 -4,16 10,5 -2,-2 6,1 5,2 0,-6 4,3 3,6 0,9 -1,16 2,9 -2,6 5,1 2,13 2,21 9,33 8,-2 3,2 12,-9l2 -2c0,-1 7,-6 14,-9 -1,-9 -6,-2 5,-12 -11,-4 -12,-10 -13,-25l0 -11c-17,-14 -9,-20 -18,-38 -20,21 1,39 -6,52l-10 -9zm-116 -314c13,-3 9,3 18,-7 5,-6 6,-14 5,-22 -4,-26 -10,-24 -20,-40l-15 0c-7,15 -8,10 -7,29 1,13 -2,19 0,32 14,6 -1,6 19,8zm-587 29c1,10 5,14 10,23 8,15 15,6 35,12 8,2 14,5 18,14l2 0c1,-13 -5,-35 -8,-49 -4,-14 -2,-9 -2,-22 0,-8 -1,-17 -1,-26 -6,9 -4,7 -5,19l-6 -3c-3,17 -11,12 -15,30 18,-4 2,-9 21,-15l-12 19c5,15 6,-1 1,22 -9,-5 -13,-5 -21,-11 -10,-7 -2,-8 -17,-13zm13 -215c0,20 -4,15 -6,27 -1,14 1,6 8,19 20,-3 7,-8 29,-11 1,-4 7,-22 7,-28 0,-4 0,-3 -1,-4 -4,-5 -4,2 -15,-19l-9 -2 -13 18zm257 -46c3,12 5,15 17,17 17,3 28,3 45,-1l7 -10c-9,-3 -5,-3 -9,-5l-9 -9c-1,0 -1,-1 -2,-1l-4 -8c-8,-15 -19,-5 -37,-3 13,14 15,-4 39,10 -1,5 7,6 -9,11 -10,3 -13,-8 -33,-9 -7,11 7,2 -5,8zm-29 7l9 4c1,3 10,4 -8,5 9,9 10,8 23,12 7,3 10,3 17,3l19 -2c-11,-19 -6,2 -14,-12 -12,-2 -14,-5 -17,-17l-1 -3c-20,-3 -5,-6 -22,-6l-10 9 4 7zm427 -5c11,12 12,13 30,14 18,1 24,1 28,-15 -10,0 2,2 -4,-2l-4 -8c-52,13 -22,-1 -46,0 -9,11 -4,2 -4,11zm322 -43c-4,-1 -7,-6 -19,7 -8,10 -10,23 -9,36l30 -1 -2 -42zm-12 -70l3 -1 -2 -2 -1 3zm-915 421l-3 1 2 2 1 -3zm0 54l-3 1 2 2 1 -3zm3 9l-1 -2 -2 1 3 1zm0 0l1 3 2 -2 -3 -1zm-51 -577c0,0 1,-2 1,-1 0,0 0,-1 0,-1 0,0 -5,-3 -1,2zm51 595c0,1 1,-1 1,0 0,0 0,-1 0,-1 0,0 -5,-3 -1,1zm978 -496c0,0 1,-1 1,-1 0,0 0,0 0,0 0,0 -5,-3 -1,1z"/>
  <path class="fil1" d="M1320 780l2 43 -30 1c-1,-13 1,-27 9,-36 12,-13 15,-8 19,-8zm-566 -659l-209 88 5 26c-2,5 -2,12 -6,15 0,1 -1,1 -1,1l-13 19 129 -49 11 -9c-9,-26 6,13 33,-25 18,-26 4,12 37,-3 24,-10 27,8 53,13 37,8 7,-5 41,-14 18,-5 64,35 73,45 32,37 60,6 83,-15l-6 24 12 -19 136 70 53 67 1 0 13 90 -32 191 6 5 -6 -4 -2 4 10 71 -9 3 -15 -16 -3 3 2 30 11 47 -9 2 26 14 8 -71 10 -1 9 90 7 1 11 -66c14,29 -23,201 -34,241 -3,10 -96,155 -106,164l-84 -104c13,19 14,34 30,52 18,20 -9,3 14,21 11,9 9,11 24,19 2,17 -5,2 6,18 6,9 9,16 3,26l-9 -13c8,8 5,12 3,21l-13 -33 -7 11 -28 31 -16 -52 -5 2 11 31 -21 -1 17 9c7,1 8,12 3,22 10,5 0,-6 9,3 6,7 -1,2 5,12 8,-15 -4,-2 3,-15 2,3 7,14 7,14 4,5 1,2 8,5 8,5 -2,-5 8,4 -1,2 -3,20 0,25 -1,1 -6,-3 -12,8l8 4 11 1 4 6c8,-16 1,-15 3,-32l8 14c-3,-19 3,-20 5,-36 2,-12 3,-28 16,-7 2,-18 -7,-21 6,-27 16,8 11,25 11,41 0,26 -1,4 -6,18 -1,5 0,14 -1,23 -3,22 -3,14 -19,28 -12,11 -7,30 -11,40l-12 -7 5 28 1 10c10,8 15,3 23,10 -9,8 12,-1 -5,6l-5 1c17,6 0,12 20,19 11,-7 33,-28 31,-40 1,8 -1,0 6,5l44 -99 -10 -5 -16 10 46 -109 16 1 30 -262 11 0 25 61 -87 -403 -9 0 19 13c-4,-14 -13,-35 -19,-49 23,-8 2,-9 24,-5l-9 -9 15 -1c-3,-21 -3,-8 -2,-19 1,-11 4,-12 6,-25l9 9c-1,-6 -8,-18 -7,-21 1,-11 0,3 3,-3 4,-9 0,2 0,-13 11,3 4,-3 11,8l-8 -17c8,3 15,8 17,17 2,5 1,6 3,12 4,12 1,0 7,11 7,10 1,34 4,51l-12 17 26 115 -11 2 -12 -45 12 144 20 92 2 -21c8,1 29,22 36,28l4 -89 -5 -2 -44 14 -5 -7 48 -64 -12 0 -9 -202 0 -9 -9 -9 -1 -41 -4 -2 11 7c-5,-51 -52,-121 -87,-157 -25,-24 -35,-24 -65,-59 -11,-14 -57,-48 -57,-49 -10,-26 -154,-77 -215,-78l-54 0 -64 9z"/>
  <path class="fil2" d="M811 417c11,-7 8,-17 14,-21 5,-3 10,1 15,-3 6,-6 -1,-7 11,-6 12,1 7,-4 13,-8 8,21 5,19 -14,27 0,5 30,7 13,29 -13,17 -21,5 -46,9l17 10c-4,17 -13,-4 -23,2 -11,7 7,19 9,24 -12,15 -50,-1 -56,-16 -13,-36 -7,-10 -21,-24 -4,-4 -4,-8 -9,-10 -4,-1 -4,5 -8,-3 2,-3 29,-27 35,-31 24,-18 27,-18 33,5 0,0 15,-37 25,-9 1,4 -24,20 -8,25zm188 136l3 -2c-16,-10 -10,2 -17,-7l3 11 -16 9c-6,-11 7,-7 -11,-23 -19,-5 2,14 -8,1 -2,-2 2,-4 -8,-5 -29,-2 -6,19 -40,-12 21,-26 11,-9 35,-14 -19,-15 7,-8 27,-33 4,-4 32,-43 35,-25 -3,-13 -2,-11 7,-19l7 9 -2 -1 -75 -64 24 -9 -23 -9 33 -13 -2 -7 -26 1 20 -61c-53,10 -44,-1 -90,-13 -33,-8 -11,22 -49,9 -7,-2 -18,7 -32,3 -16,-5 -23,-27 -40,-22 -24,7 9,18 -51,24 -51,6 -3,78 -9,124 -4,37 -46,25 -34,61 12,39 51,49 3,62 -48,14 -27,34 9,44 2,1 10,50 13,56 18,54 51,15 88,25 30,9 49,37 49,-34 0,-64 5,37 9,36 5,0 8,-15 25,-11 20,5 26,15 50,6 30,-11 43,-32 50,-58 4,-18 50,5 43,-39z"/>
  <path class="fil3" d="M482 1043c-4,34 6,34 15,46 13,17 16,20 19,39 12,85 6,27 4,84 0,13 3,13 2,26 -18,-24 -11,1 -20,11 -5,-16 -2,-29 0,-46 2,-22 -2,-25 -6,-44 -1,-8 0,-20 -1,-23 0,-3 -9,-10 -18,-51 -4,13 -1,25 -9,36 -12,-5 -16,-34 -18,-47 -4,-24 -18,-7 -13,-38l-6 -2c6,-44 -6,-14 1,-37l12 0c10,18 -3,7 5,18 9,13 7,2 11,7 4,3 3,11 11,16l11 5zm-31 -608c-27,7 0,15 -16,23l-26 402 -16 -3 -31 -76 6 39c13,16 -10,-7 4,2 3,1 20,23 12,32 -5,8 0,1 -5,-11 -4,12 0,9 -9,12l-4 -7 0 4c10,21 11,14 14,19 1,1 2,0 1,4 0,5 -6,24 -7,28 -1,16 -7,16 -13,32 -8,23 0,28 0,48 -21,-5 -25,-37 -34,-55 -7,-15 -18,-24 -19,-39 0,-9 3,-8 4,-20l24 7c2,-11 -2,-3 7,-8l13 -18 -5 -9c-57,4 -12,-25 -29,-55 -22,-4 -17,12 -25,24 -12,19 -10,-5 -22,27l-2 -29c-5,6 -7,8 -9,12 -1,4 12,6 -6,11 -5,-29 10,-51 12,-78l-21 54 77 235 -5 -32c11,9 7,19 26,23 -7,-25 -58,-88 -40,-115 21,20 13,26 24,45 3,9 -1,-2 4,3l7 13c8,14 31,33 32,34 13,16 -9,10 10,21l-5 -131 3 0 19 108 4 -9 53 165 -4 2 -5 -10 -18 9 83 196c11,4 -4,5 13,10 0,0 1,1 1,1 15,3 14,-2 22,-12 8,14 2,6 3,15 17,-15 8,-15 19,-23l1 9c6,-12 13,-20 28,-21 -9,8 -15,-14 -19,-23 15,-13 4,-2 7,-3 18,-2 2,7 15,-13 15,-25 9,-15 18,-8l0 -10 115 -37 -111 9c0,9 1,1 -5,5l-29 7 -20 49 -4 3 -86 -279 -58 -248 23 -3 49 43 4 -1 -35 1 39 11 -4 17 5 4 26 -9c-14,-23 -9,-6 -26,-17 7,-8 18,-13 23,-20l-2 0 -24 4c-46,-17 -14,-24 -36,-47 18,-9 16,-21 17,-24 2,-9 6,-19 14,-24l15 -9 1 -229 16 4 -20 -71 -36 159 -14 -20 -7 28 -1 -157z"/>
  <path class="fil4" d="M670 212l-11 9c-52,24 6,-4 -47,12 -29,9 -44,26 -32,55 15,36 -11,108 28,88l32 39 2 79 8 5 -62 22 21 8 -77 159 206 19 2 -24 123 15 62 17 40 -11 102 -33 -7 -21 -66 27 -28 -32c3,-5 33,-11 36,-23 4,-18 -13,-14 18,-34 12,-8 21,-29 20,-35 -5,-30 -22,-1 -41,0 7,44 -39,21 -43,39 -7,26 -20,47 -50,58 -24,9 -30,-1 -50,-6 -17,-4 -20,11 -25,11 -4,1 -9,-100 -9,-36 0,71 -19,43 -49,34 -37,-10 -70,29 -88,-25 -3,-6 -11,-55 -13,-56 -36,-10 -57,-30 -9,-44 48,-13 9,-23 -3,-62 -12,-36 30,-24 34,-61 6,-46 -42,-118 9,-124 60,-6 27,-17 51,-24 17,-5 24,17 40,22 14,4 25,-5 32,-3 38,13 16,-17 49,-9 46,12 37,23 90,13 -17,-8 -104,-46 -111,-56 0,12 2,30 -6,38l-26 -44 -9 15 -18 -18 -45 -4 -2 16 -13 -14 -5 16 -60 -17z"/>
  <path class="fil5" d="M670 212l60 17 5 -16 13 14 2 -16 45 4 18 18 9 -15 26 44c8,-8 6,-26 6,-38 7,10 94,48 111,56l82 1 -2 12 -20 20 38 47 -49 82 2 1c-9,5 -1,-1 0,7 1,9 -6,20 -12,29 -13,18 6,3 -5,22 -10,17 -8,-13 -10,14 10,4 2,-7 14,6 -5,9 5,14 -9,10l23 1c-12,12 -1,2 -14,7l-1 12 -3 2c19,-1 36,-30 41,0 1,6 -8,27 -20,35 -31,20 -14,16 -18,34 -3,12 -33,18 -36,23l28 32 66 -27 7 21 -102 33 51 -5 115 11 14 -4 -38 -108 -6 5 44 -141 15 2 -21 -20 60 1 -13 -90c-8,9 4,16 6,29 -16,-1 -14,-18 -21,-28 -6,3 -4,24 -3,34 -22,1 -10,-14 -26,-22 3,20 17,23 14,37 -27,7 -70,-45 -52,-69 -9,-9 -27,-20 -25,-31 31,-24 56,32 56,32 1,0 10,8 16,14 5,-8 9,-1 -1,-14l14 7c4,-12 -3,1 0,-9 13,4 1,2 10,10 7,6 2,-3 11,10l-53 -67 -136 -70 -12 19 6 -24c-23,21 -51,52 -83,15 -9,-10 -55,-50 -73,-45 -34,9 -4,22 -41,14 -26,-5 -29,-23 -53,-13 -33,15 -19,-23 -37,3 -27,38 -42,-1 -33,25z"/>
  <path class="fil6" d="M530 270c1,18 -15,27 -29,39 -20,16 -40,59 -47,83l-6 39c2,3 6,-5 3,4l1 157 7 -28 14 20 36 -159 20 71 -16 -4 -1 229c11,-2 32,-4 40,-6 24,-7 1,-4 27,-4 7,0 31,-3 36,-2 8,2 23,12 27,17l-3 -8 45 8 194 -1 -2 15 49 -25 -62 -17 -123 -15 -2 24 -206 -19 77 -159 -21 -8 62 -22 -8 -5 -2 -79 -32 -39c-39,20 -13,-52 -28,-88 -12,-29 3,-46 32,-55 53,-16 -5,12 47,-12l-129 49z"/>
  <path class="fil7" d="M874 1041l-12 16 -156 -19 -2 -8c0,0 18,-46 24,-46 7,-1 14,10 43,8 3,-31 15,-193 22,-210l63 11 -10 5 28 243zm91 -337l-40 11 -49 25 2 -15 -194 1 10 9c31,2 25,-4 34,0 3,1 5,3 8,5 20,10 23,4 46,9 0,20 -16,25 -17,46 -1,23 -1,23 -14,44l-21 -13 2 16 -6 18c-2,-1 -12,8 -10,-8 4,15 -7,16 -18,21l0 4 35 28 5 -9 5 57 -30 20 -50 26 -86 89 1 9 -83 -58 2 -35 -12 3 -12 -46 -22 1c-11,-47 -31,-106 24,-115l78 59 123 -22c-2,0 -23,7 -32,10 -12,4 -27,4 -43,3 -30,-1 -52,-7 -65,-33l-5 -6 -26 9 -5 -4 4 -17 -39 -11 35 -1 -4 1 -49 -43 -23 3 58 248 86 279 4 -3 20 -49 -12 -76 -3 12c-39,-68 96,-216 132,-208l-9 42 3 6 156 38 1 0c4,-15 16,-24 27,-32l-16 -233 7 -55 84 -41 54 -24 -51 5z"/>
  <path class="fil8" d="M444 1313l114 163 38 59c21,22 16,-11 34,38 21,-10 1,4 46,18 11,3 32,24 44,34l200 0 123 -98 139 -128 -18 -20 -46 28c-3,11 -12,19 -20,25 0,0 -1,1 -1,1l-4 4c-7,6 2,4 -14,6l-30 -8c-5,7 -5,8 -16,10 -11,-5 -2,-1 -9,-15 -4,11 -1,8 2,17 4,14 0,2 -5,16 2,19 -9,39 -24,43 -10,2 -22,11 -26,20l-4 15c-19,-3 -56,23 -52,44l-10 -21c-11,9 -7,11 -10,16 -5,6 -6,0 -17,4 -3,-18 2,-10 -11,-13 2,-18 6,-28 -1,-46 -14,1 -2,15 -15,-3l-12 12 -8 -8 -8 14c-27,-1 0,-10 -30,-1 -11,-15 -3,-5 -21,-15 -15,1 -10,-3 -21,12l12 10c-8,8 -6,7 -18,6 13,-11 10,0 2,-18 -19,3 -7,4 -14,13l-8 -12 -8 24 -11 -12c-11,8 4,2 -4,16l-14 -23 -12 4 -3 -24 0 -14c-2,15 -7,20 1,32 -15,-4 -1,3 -11,-11 -7,-11 -9,-14 -19,-17 -12,-4 -2,-3 -16,-2 0,-15 8,-13 -4,-18l-17 1 -10 -27 -13 5c5,-15 9,-24 -1,-34 -14,14 -1,17 -4,38 -13,-24 -6,-21 -10,-45l-12 12 -2 -22c-6,-1 -20,8 -29,-22 -9,-29 -19,-16 -25,-33l-59 -77 2 27z"/>
  <path class="fil9" d="M737 1249l-115 37c1,4 3,14 3,16 4,11 4,-1 5,12 -12,13 -4,4 -20,9 0,1 2,0 2,1 0,0 2,0 2,0 18,6 2,-7 5,6 5,18 11,15 21,25 -2,12 -5,5 -2,15 2,5 -3,3 4,3 12,-2 2,-2 3,-4 0,-1 -8,-1 8,-8 14,-7 9,-7 16,-11 7,22 -6,-4 -2,32 20,10 6,-9 24,13l-33 -86 76 43 1 -33 -12 -6 24 -15 9 4 2 58 28 -50 9 3 8 51c0,-13 -2,-33 4,-44l38 5 8 34 -12 -20 -20 33 27 18 7 -19 5 -9c5,9 1,10 12,17 17,-31 -22,-35 -4,-50 15,12 -1,17 15,26 6,-11 -3,-23 -4,-34 20,-7 15,9 20,21 10,-3 7,-10 15,-1l-4 -15c-12,1 -14,-2 -15,-14 11,-7 11,-5 21,-1 9,3 -1,-2 10,-3 30,34 5,43 -13,52 -14,6 -2,5 -25,11l-7 -11 -1 24c-12,2 -14,-3 -23,-9l31 25 0 3 0 38 -1 -3 11 22c4,8 4,18 6,30 9,-8 5,-11 10,-10 -1,14 0,11 4,16 4,-9 12,-7 6,-25 -4,-14 5,-9 -1,-11 0,14 4,15 10,33 17,-10 5,-6 14,-17 -9,-7 -9,1 -14,-16 -4,-15 13,-16 -4,-26l12 -19c0,0 16,8 28,0 22,-14 7,-10 7,-26 9,-8 7,-4 17,-2 -2,-7 -15,-18 -1,-31l14 20 3 -15 9 3c-8,-8 -8,-5 -5,-13 12,0 8,-2 15,10l5 7 -26 -99 -43 8 20 -24 -247 -4z"/>
  <path class="fil10" d="M432 1354l-63 67 -105 99 -157 84c-19,3 -31,18 -54,17l0 4 319 0 47 -264 22 4 2 260 21 0 1 -5 -33 -266z"/>
  <path class="fil7" d="M1178 795l-16 18 -115 64 2 4 39 21 67 -14c46,52 -27,103 -48,145 -33,62 -128,-8 -158,-43l-26 -107 10 -5 33 18 14 -13 -66 -23 -5 4 -3 40 -21 -29 -11 5 45 90c17,27 17,22 39,40 8,6 16,11 21,17 8,10 11,15 20,22l84 104c10,-9 103,-154 106,-164 11,-40 48,-212 34,-241l-11 66 -7 -1 -9 -90 -10 1 -8 71z"/>
  <path class="fil11" d="M1219 1338l-68 234 -46 53 153 0c9,-28 66,-104 51,-136 -12,-23 -53,-113 -43,-140l-12 -11 -22 -11 -13 11z"/>
  <path class="fil12" d="M641 1207c24,-1 16,0 30,-13 13,-12 26,-12 32,-19l4 20c-9,4 -25,7 -27,20 14,2 6,-5 29,-2 18,3 20,1 36,-3 12,-3 47,8 59,11 -31,3 -54,-20 -64,9l-17 -2 -8 17 -71 -12 -18 25 111 -9 247 4 -20 24 43 -8 26 99 11 9c6,-14 -15,-31 5,-52 9,17 1,24 18,38l-5 -28c-11,-14 0,-41 0,-55l-4 -6 -11 -1 -8 -4c0,1 0,1 -1,2l-4 12c-13,-10 -12,-3 -20,-19 -20,-39 -39,-17 -80,-20 5,-9 7,-7 7,-16l-38 0c5,-17 -13,11 4,-6 0,-1 1,-2 1,-2l42 -9c5,0 10,3 17,1l5 -3c9,-2 -9,-5 3,0 6,3 -4,2 3,3l6 4c11,-3 19,-15 24,-25l-17 -9 -22 -14 -16 23 0 -6 -54 -31 -9 3 -13 -17 -38 12 5 17 -12 -17 5 20 -51 23 7 -22 -77 -95 17 30 5 -6c-4,20 -5,12 8,24l-6 21 17 1 -9 26c-15,-12 6,-10 -23,-24 -15,14 -5,17 -22,18 -21,1 -9,-1 -26,14l-2 -12c-1,11 -11,12 -10,1l-24 36z"/>
  <path class="fil13" d="M1258 1625l336 0 -265 -143 8 -4 -71 -129c-10,27 31,117 43,140 15,32 -42,108 -51,136z"/>
  <path class="fil14" d="M663 999c-52,11 -56,54 -122,15 -28,-17 -11,-28 -5,-49 12,-36 -17,-12 -26,-13l-2 -46c21,-1 55,55 135,25 68,-26 60,-23 70,42l30 -20 -5 -57 -5 9 -35 -28c-14,2 1,1 -10,4 -2,1 -6,1 -12,3l-123 22 -78 -59c-55,9 -35,68 -24,115l22 -1 12 46 12 -3 -2 35 83 58 -1 -9 86 -89z"/>
  <path class="fil15" d="M691 1395l-2 5c21,0 -8,4 9,4 13,0 -4,-1 11,-4 7,-2 18,0 23,7l-10 25c5,10 12,6 15,6 -3,13 8,19 -6,28l6 15c-13,5 -1,-1 -4,2 -1,0 -6,5 -9,6 -1,14 -7,15 -7,19 -2,12 10,4 -8,20 10,3 7,-11 15,-21 14,4 16,7 12,22 4,-8 13,-12 15,-17 4,-6 -3,-9 8,-21l3 27c1,-20 -1,-17 10,-33 -10,-18 -13,-32 8,-42 1,19 -17,33 4,52l12 -9 15 14c7,-11 4,1 7,-18 9,0 6,4 13,-2 4,-3 5,-7 6,-15 2,-23 7,-4 17,-33 5,7 3,9 15,9l-2 22c9,-1 5,0 14,-13l4 37c7,-5 -1,-16 13,-15l0 -12 -11 -22 1 3 0 -38 0 -3 -31 -25 -2 -4 -7 19 -27 -18 20 -33 12 20 -8 -34 -38 -5c-6,11 -4,31 -4,44l-8 -51 -9 -3 -28 50 -2 -58 -9 -4 -24 15 12 6 -1 33 -76 -43 33 86z"/>
  <path class="fil16" d="M390 425l-9 15 -18 71c15,-3 13,9 16,-6l9 12 -6 7c9,42 5,24 -10,67l9 -14c6,9 7,10 5,21 -4,17 -6,1 0,18 3,10 0,33 -4,45l-9 -4 7 14c-9,18 -10,8 -8,28 -7,0 -12,-10 -20,7 -7,18 6,15 4,35 -21,16 -7,-7 -25,6 15,9 33,16 31,34l31 76 16 3 26 -402c-8,-8 0,-28 -19,-28 24,-19 15,-24 15,-30 -1,-14 8,3 2,-13 -14,6 -13,9 -23,16 -10,6 -23,9 -7,18 -5,-5 -9,-1 -13,4z"/>
  <path class="fil17" d="M432 1354l33 266 18 -149 -15 -4 5 3 -7 -61 10 -4 81 220 37 0c-1,-8 -8,-28 -18,-31l18 10c-2,-14 -11,-7 -7,-20 7,-26 0,-12 4,-25l-17 -5 4 -16c-7,-6 2,0 -8,-2 7,-29 6,-6 -10,-42 -4,-10 -6,-8 -2,-18l-114 -163 -12 41z"/>
  <path class="fil18" d="M1138 1374c12,-14 82,-139 86,-59l3 0 33 -174 1 -12 30 -16c-10,-6 -8,-3 -21,-3 -8,-35 -7,-32 0,-69 4,-19 -2,-52 15,-62l15 -12 -16 4 -25 -61 -11 0 -30 262 -16 -1 -46 109 16 -10 10 5 -44 99z"/>
  <polygon class="fil19" points="1016,699 962,723 1047,725 1150,732 1148,702 1151,699 1166,715 1175,712 1165,641 1167,637 1173,641 1167,636 1199,445 1139,444 1160,464 1145,462 1101,603 1107,598 1145,706 1131,710 "/>
  <polygon class="fil20" points="862,1057 874,1041 831,824 846,824 803,793 797,797 778,1063 785,1067 "/>
  <path class="fil0" d="M1207 581l-19 -13 9 0 87 403 16 -4 22 -108c-7,-6 -28,-27 -36,-28l-2 21 -20 -92 -12 -144 12 45 11 -2 -26 -115 12 -17 -18 -11 -1 13 -11 -14c6,9 10,13 7,24l-10 -13c3,17 15,26 7,41l-14 -12c0,18 6,4 6,23 0,8 4,12 9,20l6 -8c3,11 8,9 4,23l-10 3 -21 -40c-8,8 3,7 -8,5z"/>
  <path class="fil21" d="M384 1034l0 1c1,9 1,17 1,25 0,14 -2,9 2,23 3,14 9,36 8,49l-2 54 51 127 -2 -27 59 77 13 1 -83 -196 18 -9 5 10 4 -2 -53 -165 -4 9 -19 -108 -3 0 5 131z"/>
  <path class="fil3" d="M1322 762c14,-23 21,-32 40,-28 2,11 6,15 8,23 5,15 9,66 -7,80l-3 -25c-9,-3 -8,-1 -15,3 -13,-44 -12,-23 -23,-53zm-2 -51l-48 64 5 7 44 -14 5 2 -4 89 -22 108 -15 12 15 2c8,13 0,22 4,35 5,17 3,-5 9,15 2,7 0,13 3,24 4,-25 16,-36 20,-59l50 -153c1,-45 16,-161 -66,-132z"/>
  <path class="fil22" d="M663 999l50 -26c-10,-65 -2,-68 -70,-42 -80,30 -114,-26 -135,-25l2 46c9,1 38,-23 26,13 -6,21 -23,32 5,49 66,39 70,-4 122,-15z"/>
  <path class="fil23" d="M967 813l-96 6 16 233c22,0 12,17 30,2 -19,-2 -5,-2 -19,-8 -2,-13 1,-20 0,-32 0,-19 0,-14 7,-29l15 0 -4 -7 3 -8 -45 -90 11 -5 21 29 3 -40 5 -4 66 23 108 19 -39 -21 -2 -4 115 -64 -25 39 -47 -6 -4 2 6 -19 -4 1 -32 -8c-4,17 -10,17 -28,16 -17,-2 -19,-2 -30,-14l-8 -25 -23 14z"/>
  <path class="fil24" d="M642 726c-24,3 -72,-13 -92,5l15 2c-21,8 -30,3 -54,13 23,1 39,-9 68,-4 21,3 10,6 24,11 13,4 19,-1 35,6 -20,14 -50,-5 -111,38 -5,4 -8,7 -12,12 -5,7 -9,9 -13,16l24 -4c8,-24 71,-72 123,-47 -10,7 -20,0 -31,3l-61 21c-11,6 -19,10 -23,20 1,0 2,0 2,1l6 3c3,2 7,3 12,5 5,-11 0,-12 15,-19 9,-4 19,-8 28,-10l2 21 2 3c11,-6 -3,3 5,-8 19,0 22,12 32,9 17,-5 8,-6 9,-12 -24,-13 -26,5 -39,-9 18,-2 30,-12 37,2l4 8c1,1 1,2 2,2l10 9c3,2 -1,2 8,5l7 -19c-2,7 11,19 17,13 7,9 2,1 3,8 0,1 -1,3 -1,3l-1 2c31,0 -2,-12 28,-17 9,-2 19,4 32,-2 -1,-14 -6,-22 -5,-42 -12,-9 -49,-31 -55,-39l-10 -9 -45 -8 3 8z"/>
  <path class="fil25" d="M1080 955c27,11 2,28 -7,30 -2,1 -28,16 -24,0l-7 11c-21,-11 -9,3 -30,-7l6 -13c-16,20 -7,15 -25,6 -9,-5 -4,3 -15,-7 -6,-5 -7,-7 -15,-14l10 -9 -8 -12c15,-8 4,2 16,0 1,0 11,-3 15,-3 13,-1 24,9 32,6 8,-4 71,-19 52,12zm-131 35l127 38 48 -46 6 7c24,-104 -32,-78 -127,-80l-37 -13 -33 -18 -10 5 26 107z"/>
  <path class="fil26" d="M592 1270l29 -7c-2,-2 -6,-9 -8,-9 -13,-8 5,11 -7,-2 -9,-9 3,-19 3,-30 0,-12 -10,-12 4,-23 19,-13 -20,17 17,-3 -12,5 -5,14 1,22l6 -8c-5,-7 8,-16 9,-34 -22,11 -1,1 -11,-3l-29 8c-12,-17 20,-62 31,-80 10,-16 40,-72 59,-70l3 21 7 18 5 2c28,-45 121,100 148,12l-156 -38 -3 -6 9 -42c-36,-8 -171,140 -132,208l3 -12 12 76z"/>
  <path class="fil24" d="M711 1072l5 6 77 95 -7 22 51 -23 -5 -20 12 17 -5 -17 38 -12 13 17 9 -3 0 2c-2,-19 2,-12 2,-27 14,-5 0,10 17,-9l6 13c-2,-3 -2,-27 -1,-33 3,-19 13,-12 7,-36 -16,3 -26,0 -40,2 -15,2 -15,12 -30,18l-1 0c-27,88 -120,-57 -148,-12z"/>
  <polygon class="fil4" points="965,280 945,341 971,340 973,347 940,360 963,369 939,378 1014,442 1063,360 1025,313 1045,293 1047,281 "/>
  <polygon class="fil27" points="372,1625 443,1625 441,1365 419,1361 "/>
  <path class="fil28" d="M1043 1527l-123 98 100 0c3,-14 46,-24 56,-42l40 -47 -21 21 14 -60 -6 -8 -60 38z"/>
  <path class="fil14" d="M966 896l37 13c95,2 151,-24 127,80l-6 -7 -48 46 -127 -38c30,35 125,105 158,43 21,-42 94,-93 48,-145l-67 14 -108 -19 -14 13z"/>
  <path class="fil29" d="M899 1156l0 -2 54 31 0 6 16 -23 22 14 21 1 -11 -31 5 -2 16 52 28 -31c2,-32 -33,-41 -36,-43l-10 -19c0,0 0,-5 -2,-11 -11,-23 -30,-30 -54,-31 -4,10 -20,24 -3,41 -19,17 -5,-2 -14,20 -7,18 -7,1 -12,23 -9,-5 -6,-4 -7,-13l-13 18z"/>
  <polygon class="fil30" points="465,1620 464,1625 557,1625 476,1405 466,1409 473,1470 468,1467 483,1471 "/>
  <path class="fil31" d="M1138 1374c-1,1 -3,11 -4,12 -3,6 -2,2 -6,5 -4,3 -5,8 -10,16l46 -28 18 20 -139 128 60 -38 6 8 -14 60 21 -21 103 -198 13 -11c-5,-5 -7,-7 -12,-10l4 -2c-4,-80 -74,45 -86,59z"/>
  <path class="fil12" d="M1047 725c3,9 9,12 20,12l70 5 -5 22 -110 -10 -1 6 72 23 -81 -17 -2 9 33 5c23,1 32,10 48,23 8,7 8,1 9,14 -8,5 -8,8 -17,-1 -8,-10 -8,-8 -17,-17l-10 23 32 8 4 -1 -6 19 4 -2 47 6 25 -39 16 -18 -26 -14 9 -2 -11 -47 -103 -7z"/>
  <path class="fil32" d="M459 304c-1,12 -1,15 -12,18 -5,13 -7,-2 -19,21 -8,15 -4,12 -19,10 7,11 -2,15 -16,24 -6,13 3,13 -5,31 -1,3 -4,3 2,17 4,-5 8,-9 13,-4 -16,-9 -3,-12 7,-18 10,-7 9,-10 23,-16 6,16 -3,-1 -2,13 0,6 9,11 -15,30 19,0 11,20 19,28 16,-8 -11,-16 16,-23 3,-9 -1,-1 -3,-4l6 -39c7,-24 27,-67 47,-83 14,-12 30,-21 29,-39l13 -19c0,0 1,0 1,-1 4,-3 4,-10 6,-15l-10 -8c-13,4 1,1 -7,4 -3,2 0,0 -5,0l-3 19c-22,3 -7,-1 -24,18 -17,19 -18,3 -15,21 -10,-6 -16,-12 -27,4 5,1 5,-1 9,7l-9 4z"/>
  <path class="fil33" d="M512 721l-15 9c-8,5 -12,15 -14,24 -1,3 1,15 -17,24 22,23 -10,30 36,47 4,-7 8,-9 13,-16 4,-5 7,-8 12,-12 61,-43 91,-24 111,-38 -16,-7 -22,-2 -35,-6 -14,-5 -3,-8 -24,-11 -29,-5 -45,5 -68,4 24,-10 33,-5 54,-13l-15 -2c20,-18 68,-2 92,-5 -4,-5 -19,-15 -27,-17 -5,-1 -29,2 -36,2 -26,0 -3,-3 -27,4 -8,2 -29,4 -40,6z"/>
  <path class="fil34" d="M962 723l-84 41 -7 55 96 -6 -14 3c28,-24 50,-44 90,-36l-33 -5 2 -9 81 17 -72 -23 1 -6 110 10 5 -22 -70 -5c7,7 -3,5 14,5 -12,1 -20,10 -41,11 -18,1 -30,0 -47,6l22 6 -66 26c-11,-6 0,-5 -8,-8 -9,-2 2,7 -14,0 5,-8 12,-11 12,-12 1,-4 -3,-3 5,-14 8,-13 -1,-12 19,-21 23,-10 75,-5 84,-11l-85 -2z"/>
  <path class="fil35" d="M920 985c10,15 17,14 20,40 2,8 0,16 -5,22 -8,10 -5,4 -18,7 -18,15 -8,-2 -30,-2 -11,8 -23,17 -27,32 15,-6 15,-16 30,-18 14,-2 24,1 40,-2 6,24 -4,17 -7,36 -1,6 -1,30 1,33l-6 -13c-17,19 -3,4 -17,9 0,15 -4,8 -2,27l13 -18c1,9 -2,8 7,13 5,-22 5,-5 12,-23 9,-22 -5,-3 14,-20 -17,-17 -1,-31 3,-41 24,1 43,8 54,31 2,6 2,11 2,11l10 19c3,2 38,11 36,43l7 -11 13 33c2,-9 5,-13 -3,-21l9 13c6,-10 3,-17 -3,-26 -11,-16 -4,-1 -6,-18 -15,-8 -13,-10 -24,-19 -23,-18 4,-1 -14,-21 -16,-18 -17,-33 -30,-52 -9,-7 -12,-12 -20,-22 -5,-6 -13,-11 -21,-17 -22,-18 -22,-13 -39,-40l-3 8 4 7z"/>
  <path class="fil36" d="M811 417c-16,-5 9,-21 8,-25 -10,-28 -25,9 -25,9 -6,-23 -9,-23 -33,-5 -6,4 -33,28 -35,31 4,8 4,2 8,3 5,2 5,6 9,10 14,14 8,-12 21,24 6,15 44,31 56,16 -2,-5 -20,-17 -9,-24 10,-6 19,15 23,-2l-17 -10c25,-4 33,8 46,-9 17,-22 -13,-24 -13,-29 19,-8 22,-6 14,-27 -6,4 -1,9 -13,8 -12,-1 -5,0 -11,6 -5,4 -10,0 -15,3 -6,4 -3,14 -14,21z"/>
  <path class="fil37" d="M837 1465c-1,8 -2,12 -6,15 -7,6 -4,2 -13,2 -3,19 0,7 -7,18 7,12 3,-3 -3,7 -7,13 0,5 -4,23 -9,-13 -3,1 -9,-6 -6,-7 0,2 -4,-6 -3,-6 4,3 -3,-9 -12,13 0,3 -7,11 -7,6 2,3 -9,4 18,10 10,0 21,15 30,-9 3,0 30,1l8 -14 8 8 12 -12c13,18 1,4 15,3 7,18 3,28 1,46 13,3 8,-5 11,13 11,-4 12,2 17,-4 3,-5 -1,-7 10,-16l10 21c-4,-21 33,-47 52,-44l4 -15c-10,-2 -8,1 -17,0l-12 -4c5,-23 27,-51 6,-48l-1 2 -5 28 -8 -1c3,12 3,18 -4,28l-3 -12 -8 8c-3,-6 -5,-7 -1,-11l-8 12c-9,-3 -22,-13 -31,-9 5,-13 4,-6 -1,-14 -9,-1 -8,-4 -14,6 -3,-10 5,-11 7,-25 -9,9 -1,9 -14,13 -10,-25 11,-15 5,-49 -1,2 -14,15 -17,19l-8 -4z"/>
  <path class="fil14" d="M862 1057l-77 10 -7 -4 19 -266 6 -4 43 31 -15 0 43 217 -28 -243 10 -5 -63 -11c-7,17 -19,179 -22,210 -29,2 -36,-9 -43,-8 -6,0 -24,46 -24,46l2 8 156 19z"/>
  <path class="fil38" d="M363 511c0,78 -14,77 -13,103 1,30 5,10 -8,33 -8,14 -1,9 -2,18 -1,8 -6,7 -10,19l16 20c-16,6 -8,4 -20,-2l-1 20c-20,7 -38,2 -49,19l-15 7 9 5c10,-7 11,-22 29,-20 0,0 11,3 16,4 11,3 7,2 16,10 18,-13 4,10 25,-6 2,-20 -11,-17 -4,-35 8,-17 13,-7 20,-7 -2,-20 -1,-10 8,-28l-7 -14 9 4c4,-12 7,-35 4,-45 -6,-17 -4,-1 0,-18 2,-11 1,-12 -5,-21l-9 14c15,-43 19,-25 10,-67l6 -7 -9 -12c-3,15 -1,3 -16,6z"/>
  <path class="fil39" d="M573 1364c-2,16 -6,11 -3,29 3,29 11,1 10,20 6,-18 23,-27 15,-36 9,11 7,2 19,-4 22,-10 0,6 17,-1 0,25 -9,10 -17,27 3,-1 3,0 5,0 16,-1 -2,3 17,-1 -4,14 -4,8 -11,18 11,-3 7,-3 14,-11 7,-8 5,-4 13,-15l3 12c1,2 0,3 6,-1l-6 15c10,3 -12,3 3,-1 25,-6 -11,1 8,-2l-5 22c5,-20 0,-9 -3,-9l-16 25c7,3 3,4 13,0 0,0 -10,-4 6,-2 -2,13 -6,9 1,18 19,-15 -8,-19 13,-36 0,0 1,0 2,-1 33,-24 10,-10 12,-30l2 -5c-18,-22 -4,-3 -24,-13 -4,-36 9,-10 2,-32 -7,4 -2,4 -16,11 -16,7 -8,7 -8,8 -1,2 9,2 -3,4 -7,0 -2,2 -4,-3 -3,-10 0,-3 2,-15 -10,-10 -16,-7 -21,-25 -3,-13 13,0 -5,-6 0,0 -2,0 -2,0 0,-1 -2,0 -2,-1 16,-5 8,4 20,-9 -1,-13 -1,-1 -5,-12 0,-2 -2,-12 -3,-16l0 10c-9,-7 -3,-17 -18,8 -13,20 3,11 -15,13 -3,1 8,-10 -7,3 4,9 10,31 19,23 -15,1 -22,9 -28,21z"/>
  <path class="fil40" d="M536 864c13,26 35,32 65,33 16,1 31,1 43,-3 9,-3 30,-10 32,-10 6,-2 10,-2 12,-3 11,-3 -4,-2 10,-4l0 -4c11,-5 22,-6 18,-21 -2,16 8,7 10,8l6 -18c-3,1 -21,6 -22,6 -6,3 -4,8 -4,9 -13,2 -14,5 -26,8 -10,2 -14,-1 -25,-1 24,-13 -9,-6 24,-23l-17 -3c-16,4 -28,3 -45,1 8,13 3,-7 14,12l-19 2c-7,0 -10,0 -17,-3 -13,-5 -14,-3 -23,-12 18,-1 9,-2 8,-5l-9 -4c-7,6 -6,2 -14,6 9,5 11,6 15,14 -14,7 -19,1 -33,-2 3,13 -2,3 7,15l-10 2z"/>
  <path class="fil35" d="M482 1043l-11 -5c-8,-5 -7,-13 -11,-16 -4,-5 -2,6 -11,-7 -8,-11 5,0 -5,-18l-12 0c-7,23 5,-7 -1,37l6 2c-5,31 9,14 13,38 2,13 6,42 18,47 8,-11 5,-23 9,-36 9,41 18,48 18,51 1,3 0,15 1,23 4,19 8,22 6,44 -2,17 -5,30 0,46 9,-10 2,-35 20,-11 1,-13 -2,-13 -2,-26 2,-57 8,1 -4,-84 -3,-19 -6,-22 -19,-39 -9,-12 -19,-12 -15,-46z"/>
  <path class="fil41" d="M637 1210l4 -3 24 -36c-1,11 9,10 10,-1l2 12c17,-15 5,-13 26,-14 17,-1 7,-4 22,-18 29,14 8,12 23,24l9 -26 -17 -1 6 -21c-13,-12 -12,-4 -8,-24l-5 6 -17 -30 -5 -6 -5 -2c21,47 -19,50 -13,80l7 -17c4,12 3,20 -8,28 -7,-3 0,-5 -5,-7 -3,-1 2,8 -9,-6l-12 16c-6,-3 -7,-5 -4,-8 -18,12 -3,-10 -20,10 -4,-9 0,-6 -2,-7l-3 -2c-10,-4 -6,-4 -14,-3 -12,2 -12,6 -14,10 5,-8 10,-23 17,-30 12,-14 13,-13 21,-31 15,-34 28,-40 44,-56l8 5 -3 -21c-19,-2 -49,54 -59,70 -11,18 -43,63 -31,80l29 -8c10,4 -11,14 11,3 -1,18 -14,27 -9,34z"/>
  <path class="fil42" d="M947 1476l1 -2 5 -12c-1,2 -4,1 3,-1 2,0 4,-1 4,-1 10,0 3,-3 10,9 9,-10 7,0 6,-13 -5,11 -1,5 5,11l5 -21c0,0 2,-6 3,2 2,18 -8,12 3,30 12,-17 13,-28 0,-44 6,12 43,17 22,38 -2,-8 1,-6 7,-9 5,-14 9,-2 5,-16 -3,-9 -6,-6 -2,-17 7,14 -2,10 9,15 -4,-15 -10,-24 -13,-34 -3,-13 0,-6 -6,-19 -4,-10 -6,-3 -1,-16l21 20c0,-6 3,-10 0,-15 -4,-10 1,-1 -4,-3 -8,-4 4,4 -6,-1 1,-20 -5,-10 4,-16 -7,-12 -3,-10 -15,-10 -3,8 -3,5 5,13l-9 -3 -3 15 -14 -20c-14,13 -1,24 1,31 -10,-2 -8,-6 -17,2 0,16 15,12 -7,26 -12,8 -28,0 -28,0l-12 19c17,10 0,11 4,26 5,17 5,9 14,16z"/>
  <path class="fil6" d="M706 1070l-7 -18 -8 -5c-16,16 -29,22 -44,56 -8,18 -9,17 -21,31 -7,7 -12,22 -17,30 2,-4 2,-8 14,-10 8,-1 4,-1 14,3l3 2c2,1 -2,-2 2,7 17,-20 2,2 20,-10 -3,3 -2,5 4,8l12 -16c11,14 6,5 9,6 5,2 -2,4 5,7 11,-8 12,-16 8,-28l-7 17c-6,-30 34,-33 13,-80z"/>
  <path class="fil43" d="M1260 1141c10,-10 3,-6 18,-6 2,-9 -9,1 7,-10 18,-12 17,-11 27,-30 7,-12 -3,13 2,-6 3,-13 14,-1 11,-28l8 -46c5,-13 10,-16 3,-19 -4,23 -16,34 -20,59 -3,-11 -1,-17 -3,-24 -6,-20 -4,2 -9,-15 -4,-13 4,-22 -4,-35l-15 -2c-17,10 -11,43 -15,62 -7,37 -8,34 0,69 13,0 11,-3 21,3l-30 16 -1 12z"/>
  <path class="fil4" d="M1002 551l1 -12c13,-5 2,5 14,-7l-23 -1c14,4 4,-1 9,-10 -12,-13 -4,-2 -14,-6 2,-27 0,3 10,-14 11,-19 -8,-4 5,-22 6,-9 13,-20 12,-29 -1,-8 -9,-2 0,-7l-7 -9c-9,8 -10,6 -7,19 -3,-18 -31,21 -35,25 -20,25 -46,18 -27,33 -24,5 -14,-12 -35,14 34,31 11,10 40,12 10,1 6,3 8,5 10,13 -11,-6 8,-1 18,16 5,12 11,23l16 -9 -3 -11c7,9 1,-3 17,7z"/>
  <path class="fil44" d="M614 1399c-1,1 -3,5 -3,5 -3,4 -1,1 -4,4 -6,5 -2,-3 -9,6 8,3 -2,-5 7,1 15,10 -2,22 -3,24 -9,17 11,26 15,36 15,-12 3,-11 15,-15 -5,9 -5,3 -7,12 -2,6 0,9 -1,18 12,5 4,3 4,18 14,-1 4,-2 16,2 10,3 12,6 19,17 10,14 -4,7 11,11 -8,-12 -3,-17 -1,-32l0 14c14,-6 13,-5 11,-21 3,4 -5,9 8,3 -5,-8 -9,-17 -7,-25 8,11 3,13 -5,21 0,0 -8,3 -8,-13 1,-13 15,-16 2,-16l-21 0c-10,0 0,6 -8,0l10 -18c-10,4 -6,3 -13,0l16 -25c3,0 8,-11 3,9l5 -22c-19,3 17,-4 -8,2 -15,4 7,4 -3,1l6 -15c-6,4 -5,3 -6,1l-3 -12c-8,11 -6,7 -13,15 -7,8 -3,8 -14,11 7,-10 7,-4 11,-18 -19,4 -1,0 -17,1 -2,0 -2,-1 -5,0z"/>
  <path class="fil45" d="M514 1364l-13 -1c6,17 16,4 25,33 9,30 23,21 29,22l2 22 12 -12c4,24 -3,21 10,45 3,-21 -10,-24 4,-38 10,10 6,19 1,34l13 -5 10 27 17 -1c1,-9 -1,-12 1,-18 2,-9 2,-3 7,-12 -12,4 0,3 -15,15 -4,-10 -24,-19 -15,-36 1,-2 18,-14 3,-24 -9,-6 1,2 -7,-1 7,-9 3,-1 9,-6 3,-3 1,0 4,-4 0,0 2,-4 3,-5 8,-17 17,-2 17,-27 -17,7 5,-9 -17,1 -12,6 -10,15 -19,4 8,9 -9,18 -15,36 1,-19 -7,9 -10,-20 -3,-18 1,-13 3,-29l-1 -9c-11,8 -2,8 -19,23 -1,-9 5,-1 -3,-15 -8,10 -7,15 -22,12 0,0 -1,-1 -1,-1 -17,-5 -2,-6 -13,-10z"/>
  <path class="fil6" d="M326 1042c0,15 1,-5 4,15 -5,1 -8,-11 -5,4 3,10 5,2 5,22 15,5 7,5 17,13 8,6 12,5 21,10 6,-23 4,-6 -1,-21l12 -20c-19,6 -3,12 -21,16 4,-19 12,-13 15,-30l6 3c1,-13 -1,-11 5,-19l0 -1c-19,-11 3,-5 -10,-21 -1,-1 -24,-20 -32,-34l-7 -13c-5,-5 -1,6 -4,-3 -11,-19 -3,-25 -24,-45 -18,27 33,90 40,115 -19,-4 -15,-14 -26,-23l5 32z"/>
  <path class="fil46" d="M965 940l8 12 -10 9c8,7 9,9 15,14 11,10 6,2 15,7 18,9 9,14 25,-6l-6 13c21,10 9,-4 30,7l7 -11c-4,16 22,1 24,0 9,-2 34,-19 7,-30 19,-31 -44,-16 -52,-12 -8,3 -19,-7 -32,-6 -4,0 -14,3 -15,3 -12,2 -1,-8 -16,0z"/>
  <path class="fil47" d="M1116 1536l-40 47c25,0 7,-7 34,-8 -1,-1 4,-31 23,-41 0,0 1,0 1,-1l9 -5c0,13 0,15 -5,25l10 -1c4,23 -5,6 3,20l68 -234 -103 198z"/>
  <path class="fil48" d="M641 1207l-4 3 -6 8c-6,-8 -13,-17 -1,-22 -37,20 2,-10 -17,3 -14,11 -4,11 -4,23 0,11 -12,21 -3,30 12,13 -6,-6 7,2 2,0 6,7 8,9 6,-4 5,4 5,-5l18 -25 71 12 8 -17 17 2c10,-29 33,-6 64,-9 -12,-3 -47,-14 -59,-11 -16,4 -18,6 -36,3 -23,-3 -15,4 -29,2 2,-13 18,-16 27,-20l-4 -20c-6,7 -19,7 -32,19 -14,13 -6,12 -30,13z"/>
  <path class="fil49" d="M689 1400c-2,20 21,6 -12,30 -1,1 -2,1 -2,1 -21,17 6,21 -13,36 -7,-9 -3,-5 -1,-18 -16,-2 -6,2 -6,2l-10 18c8,6 -2,0 8,0l21 0c13,0 -1,3 -2,16 0,16 8,13 8,13 8,-8 13,-10 5,-21 -2,8 2,17 7,25l2 12c8,-12 0,-11 10,-18 11,-8 6,2 8,5 7,-29 -9,-19 14,-35 -3,9 -6,9 -2,23 3,-1 8,-6 9,-6 3,-3 -9,3 4,-2l-6 -15c14,-9 3,-15 6,-28 -3,0 -10,4 -15,-6l10 -25c-5,-7 -16,-9 -23,-7 -15,3 2,4 -11,4 -17,0 12,-4 -9,-4z"/>
  <path class="fil50" d="M724 1489c-4,-14 -1,-14 2,-23 -23,16 -7,6 -14,35 -2,-3 3,-13 -8,-5 -10,7 -2,6 -10,18l-2 -12c-13,6 -5,1 -8,-3 2,16 3,15 -11,21l3 24 12 -4 14 23c8,-14 -7,-8 4,-16l11 12 8 -24 8 12c7,-9 -5,-10 14,-13 8,18 11,7 -2,18 12,1 10,2 18,-6l-12 -10c11,-15 6,-11 21,-12 11,-1 2,2 9,-4 7,-8 -5,2 7,-11 7,12 0,3 3,9 4,8 -2,-1 4,6 6,7 0,-7 9,6 4,-18 -3,-10 4,-23 6,-10 10,5 3,-7l-15 -14 -12 9c-21,-19 -3,-33 -4,-52 -21,10 -18,24 -8,42 -11,16 -9,13 -10,33l-3 -27c-11,12 -4,15 -8,21 -2,5 -11,9 -15,17 4,-15 2,-18 -12,-22 -8,10 -5,24 -15,21 18,-16 6,-8 8,-20 0,-4 6,-5 7,-19z"/>
  <path class="fil47" d="M1207 581c11,2 0,3 8,-5l21 40 10 -3c4,-14 -1,-12 -4,-23l-6 8c-5,-8 -9,-12 -9,-20 0,-19 -6,-5 -6,-23l14 12c8,-15 -4,-24 -7,-41l10 13c3,-11 -1,-15 -7,-24l11 14 1 -13 18 11c-3,-17 3,-41 -4,-51 -6,-11 -3,1 -7,-11 -2,-6 -1,-7 -3,-12 -2,-9 -9,-14 -17,-17l8 17c-7,-11 0,-5 -11,-8 0,15 4,4 0,13 -3,6 -2,-8 -3,3 -1,3 6,15 7,21l-9 -9c-2,13 -5,14 -6,25 -1,11 -1,-2 2,19l-15 1 9 9c-22,-4 -1,-3 -24,5 6,14 15,35 19,49z"/>
  <path class="fil51" d="M270 753c-2,27 -17,49 -12,78 18,-5 5,-7 6,-11 2,-4 4,-6 9,-12 1,-8 16,-39 21,-44 16,-2 16,4 25,15 8,9 36,19 47,69l4 7c9,-3 5,0 9,-12 5,12 0,19 5,11 8,-9 -9,-31 -12,-32 -14,-9 9,14 -4,-2l-6 -39c2,-18 -16,-25 -31,-34 -9,-8 -5,-7 -16,-10 -5,-1 -16,-4 -16,-4 -18,-2 -19,13 -29,20z"/>
  <path class="fil52" d="M1186 355l-1 0c-9,-13 -4,-4 -11,-10 -9,-8 3,-6 -10,-10 -3,10 4,-3 0,9l-14 -7c10,13 6,6 1,14 -6,-6 -15,-14 -16,-14 0,0 -25,-56 -56,-32 -2,11 16,22 25,31 -18,24 25,76 52,69 3,-14 -11,-17 -14,-37 16,8 4,23 26,22 -1,-10 -3,-31 3,-34 7,10 5,27 21,28 -2,-13 -14,-20 -6,-29z"/>
  <path class="fil53" d="M694 735c6,8 43,30 55,39 -1,20 4,28 5,42 -13,6 -23,0 -32,2 -30,5 3,17 -28,17l1 -2c0,0 1,-2 1,-3 -1,-7 4,1 -3,-8 -6,6 -19,-6 -17,-13l-7 19 -7 10 17 3c-33,17 0,10 -24,23 11,0 15,3 25,1 12,-3 13,-6 26,-8 0,-1 -2,-6 4,-9 1,0 19,-5 22,-6l-2 -16 21 13c13,-21 13,-21 14,-44 1,-21 17,-26 17,-46 -23,-5 -26,1 -46,-9 -3,-2 -5,-4 -8,-5 -9,-4 -3,2 -34,0z"/>
  <path class="fil54" d="M1076 1583c-10,18 -53,28 -56,42l85 0 46 -53c-8,-14 1,3 -3,-20l-10 1c5,-10 5,-12 5,-25l-9 5c0,1 -1,1 -1,1 -19,10 -24,40 -23,41 -27,1 -9,8 -34,8z"/>
  <path class="fil55" d="M1039 1269c6,-11 11,-7 12,-8 -3,-5 -1,-23 0,-25 -10,-9 0,1 -8,-4 -7,-3 -4,0 -8,-5 0,0 -5,-11 -7,-14 -7,13 5,0 -3,15 -6,-10 1,-5 -5,-12 -9,-9 1,2 -9,-3 5,-10 4,-21 -3,-22 -5,10 -13,22 -24,25l-6 -4c-7,-1 3,0 -3,-3 -12,-5 6,-2 -3,0l-5 3c-7,2 -12,-1 -17,-1l-42 9c0,0 -1,1 -1,2 -17,17 1,-11 -4,6l38 0c0,9 -2,7 -7,16 41,3 60,-19 80,20 8,16 7,9 20,19l4 -12c1,-1 1,-1 1,-2z"/>
  <path class="fil56" d="M1067 737c-11,0 -17,-3 -20,-12 -9,6 -61,1 -84,11 -20,9 -11,8 -19,21 -8,11 -4,10 -5,14 0,1 -7,4 -12,12 16,7 5,-2 14,0 8,3 -3,2 8,8l66 -26 -22 -6c17,-6 29,-5 47,-6 21,-1 29,-10 41,-11 -17,0 -7,2 -14,-5z"/>
  <path class="fil57" d="M1062 1280c0,14 -11,41 0,55l12 7c4,-10 -1,-29 11,-40 16,-14 16,-6 19,-28 1,-9 0,-18 1,-23 5,-14 6,8 6,-18 0,-16 5,-33 -11,-41 -13,6 -4,9 -6,27 -13,-21 -14,-5 -16,7 -2,16 -8,17 -5,36l-8 -14c-2,17 5,16 -3,32z"/>
  <path class="fil47" d="M594 1625l89 0 -26 -20 -2 10c-6,-8 -14,-10 -21,-14 -8,-4 -25,-19 -22,-5 1,-6 -1,-13 -1,-15 -4,-18 -4,-7 -6,-14 -4,-9 5,4 -3,-13 -4,-10 -6,-3 -6,-19l-38 -59c-4,10 -2,8 2,18 16,36 17,13 10,42 10,2 1,-4 8,2l-4 16 17 5c-4,13 3,-1 -4,25 -4,13 5,6 7,20l-18 -10c10,3 17,23 18,31z"/>
  <path class="fil58" d="M837 1465l8 4c3,-4 16,-17 17,-19 6,34 -15,24 -5,49 13,-4 5,-4 14,-13 -2,14 -10,15 -7,25 6,-10 5,-7 14,-6 5,8 6,1 1,14 9,-4 22,6 31,9l8 -12c-4,4 -2,5 1,11l8 -8 3 12c7,-10 7,-16 4,-28l8 1 5 -28c-9,11 3,7 -14,17 -6,-18 -10,-19 -10,-33 6,2 -3,-3 1,11 6,18 -2,16 -6,25 -4,-5 -5,-2 -4,-16 -5,-1 -1,2 -10,10 -2,-12 -2,-22 -6,-30l0 12c-14,-1 -6,10 -13,15l-4 -37c-9,13 -5,12 -14,13l2 -22c-12,0 -10,-2 -15,-9 -10,29 -15,10 -17,33z"/>
  <path class="fil50" d="M948 1474c21,-3 -1,25 -6,48l12 4c9,1 7,-2 17,0 4,-9 16,-18 26,-20 15,-4 26,-24 24,-43 -6,3 -9,1 -7,9 21,-21 -16,-26 -22,-38 13,16 12,27 0,44 -11,-18 -1,-12 -3,-30 -1,-8 -3,-2 -3,-2l-5 21c-6,-6 -10,0 -5,-11 1,13 3,3 -6,13 -7,-12 0,-9 -10,-9 0,0 -2,1 -4,1 -7,2 -4,3 -3,1l-5 12z"/>
  <path class="fil37" d="M1068 1373c0,15 1,22 12,26 -10,10 -6,3 -5,12 -6,3 -14,8 -14,9l-2 2c-9,11 -3,7 -12,9 -7,-12 -6,-20 -8,-34 -7,6 -4,9 -5,-1l-21 -20c-5,13 -3,6 1,16 6,13 3,6 6,19 3,10 9,19 13,34 11,-2 11,-3 16,-10l30 8c16,-2 7,0 14,-6l4 -4c0,0 1,-1 1,-1 8,-6 17,-14 20,-25 5,-8 6,-13 10,-16 4,-3 3,1 6,-5 1,-1 3,-11 4,-12 -7,-5 -5,3 -6,-5 2,12 -20,33 -31,40 -20,-7 -3,-13 -20,-19l5 -1c17,-7 -4,2 5,-6 -8,-7 -13,-2 -23,-10z"/>
  <path class="fil8" d="M967 813l23 -14 8 25c1,-9 -5,-1 4,-11 24,-1 -5,13 46,0l5 8c5,4 -6,2 3,1l10 -23c9,9 9,7 17,17 9,9 9,6 17,1 -1,-13 -1,-7 -9,-14 -16,-13 -25,-22 -48,-23 -40,-8 -62,12 -90,36l14 -3z"/>
  <path class="fil33" d="M526 821l2 0c-5,7 -16,12 -23,20 17,11 12,-6 26,17l5 6 10 -2c-9,-12 -4,-2 -7,-15 14,3 19,9 33,2 -4,-8 -6,-9 -15,-14 8,-4 7,0 14,-6l-4 -7 10 -9c17,-1 3,2 22,6l-2 -21c-9,2 -19,6 -28,10 -15,7 -10,8 -15,19 -5,-2 -9,-3 -12,-5l-6 -3c0,-1 -1,-1 -2,-1 4,-10 12,-14 23,-20l61 -21c11,-3 21,4 31,-3 -52,-25 -115,23 -123,47z"/>
  <path class="fil53" d="M1322 762c11,30 10,9 23,53 7,-4 6,-6 15,-3l3 25c16,-14 12,-65 7,-80 -2,-8 -6,-12 -8,-23 -19,-4 -26,5 -40,28z"/>
  <path class="fil59" d="M683 1625l37 0c-12,-10 -33,-31 -44,-34 -45,-14 -25,-28 -46,-18 -18,-49 -13,-16 -34,-38 0,16 2,9 6,19 8,17 -1,4 3,13 2,7 2,-4 6,14 0,2 2,9 1,15 -3,-14 14,1 22,5 7,4 15,6 21,14l2 -10 26 20z"/>
  <path class="fil60" d="M273 808l2 29c12,-32 10,-8 22,-27 8,-12 3,-28 25,-24 17,30 -28,59 29,55l5 9 10 2 0 -4c-11,-50 -39,-60 -47,-69 -9,-11 -9,-17 -25,-15 -5,5 -20,36 -21,44z"/>
  <path class="fil61" d="M374 903c-22,2 -9,8 -29,11 -7,-13 -9,-5 -8,-19 2,-12 6,-8 6,-27 -9,5 -5,-3 -7,8l-24 -7c-1,12 -4,11 -4,20 1,15 12,24 19,39 9,18 13,50 34,55 0,-20 -8,-25 0,-48 6,-16 12,-16 13,-32z"/>
  <path class="fil54" d="M855 1371l2 4c9,6 11,11 23,9l1 -24 7 11c23,-6 11,-5 25,-11 18,-9 43,-18 13,-52 -11,1 -1,6 -10,3 -10,-4 -10,-6 -21,1 1,12 3,15 15,14l4 15c-8,-9 -5,-2 -15,1 -5,-12 0,-28 -20,-21 1,11 10,23 4,34 -16,-9 0,-14 -15,-26 -18,15 21,19 4,50 -11,-7 -7,-8 -12,-17l-5 9z"/>
  <path class="fil62" d="M1033 1368l-5 -7c-9,6 -3,-4 -4,16 10,5 -2,-3 6,1 5,2 0,-7 4,3 3,5 0,9 0,15 1,10 -2,7 5,1 2,14 1,22 8,34 9,-2 3,2 12,-9l2 -2c0,-1 8,-6 14,-9 -1,-9 -5,-2 5,-12 -11,-4 -12,-11 -12,-26l-1 -10c-17,-14 -9,-21 -18,-38 -20,21 1,38 -5,52l-11 -9z"/>
  <path class="fil63" d="M917 1054c13,-3 10,3 18,-7 5,-6 7,-14 5,-22 -3,-26 -10,-25 -20,-40l-15 0c-7,15 -7,10 -7,29 1,12 -2,19 0,32 14,6 0,6 19,8z"/>
  <path class="fil64" d="M330 1083c1,10 5,14 10,22 9,16 16,6 35,13 8,2 15,4 18,14l2 0c1,-13 -5,-35 -8,-49 -4,-14 -2,-9 -2,-23 0,-8 0,-16 -1,-25 -6,8 -4,6 -5,19l-6 -3c-3,17 -11,11 -15,30 18,-4 2,-10 21,-16l-12 20c5,15 7,-2 1,21 -9,-5 -13,-4 -21,-10 -10,-8 -2,-8 -17,-13z"/>
  <path class="fil65" d="M343 868c0,19 -4,15 -6,27 -1,14 1,6 8,19 20,-3 7,-9 29,-11 1,-4 7,-23 7,-28 1,-4 0,-3 -1,-4 -3,-5 -4,2 -14,-19l-10 -2 -13 18z"/>
  <path class="fil66" d="M601 822c3,12 4,15 16,17 17,2 29,3 45,-1l7 -10c-9,-3 -5,-3 -8,-5l-10 -9c-1,0 -1,-1 -2,-2l-4 -8c-7,-14 -19,-4 -37,-2 13,14 15,-4 39,9 -1,6 8,7 -9,12 -10,3 -13,-9 -32,-9 -8,11 6,2 -5,8z"/>
  <path class="fil67" d="M571 829l9 4c1,3 10,4 -8,5 9,9 10,7 23,12 7,3 10,3 17,3l19 -2c-11,-19 -6,1 -14,-12 -12,-2 -13,-5 -16,-17l-2 -3c-19,-4 -5,-7 -22,-6l-10 9 4 7z"/>
  <path class="fil68" d="M998 824c11,12 13,12 30,14 18,1 24,1 28,-16 -9,1 2,3 -3,-1l-5 -8c-51,13 -22,-1 -46,0 -9,10 -3,2 -4,11z"/>
  <path class="fil69" d="M1320 782c-4,0 -8,-6 -19,8 -8,9 -10,22 -10,36l31 -2 -2 -42z"/>
  <polygon class="fil42" points="1308,711 1311,710 1309,708 "/>
  <polygon class="fil39" points="393,1132 390,1133 392,1135 "/>
  <polygon class="fil39" points="393,1186 390,1187 392,1189 "/>
  <polygon class="fil49" points="396,1195 395,1192 393,1194 "/>
  <polygon class="fil49" points="396,1195 397,1198 399,1196 "/>
  <path class="fil70" d="M345 617c0,1 1,-1 1,-1 0,1 0,0 0,0 0,0 -5,-3 -1,1z"/>
  <path class="fil49" d="M396 1213c0,0 1,-1 1,-1 0,0 0,0 0,0 0,0 -5,-3 -1,1z"/>
  <path class="fil42" d="M1374 717c1,0 1,-2 1,-1 0,0 1,-1 1,-1 -1,0 -6,-2 -2,2z"/>
 </g>
</svg>
